solid Corner Bracket 3030M5
facet normal -1.0 0.0 0.0
  outer loop
    vertex 10.1 -3.7893299609237376e-15 19.499999999999996
    vertex 10.1 -1.6000000000000003 0.0
    vertex 10.1 -1.6000000000000003 19.499999999999996
  endloop
endfacet
facet normal -1.0 0.0 0.0
  outer loop
    vertex 10.1 -1.6000000000000003 0.0
    vertex 10.1 -3.7893299609237376e-15 19.499999999999996
    vertex 10.1 0.0 0.0
  endloop
endfacet
facet normal 0.0 0.0 -1.0
  outer loop
    vertex 0.0 35.0 0.0
    vertex 11.57512886940357 26.399999999999995 -3.524958103184872e-15
    vertex 0.0 0.0 0.0
  endloop
endfacet
facet normal 0.0 0.0 -1.0
  outer loop
    vertex 11.57512886940357 26.399999999999995 -3.524958103184872e-15
    vertex 0.0 35.0 0.0
    vertex 12.020101012677666 26.979898987322333 -3.524958103184872e-15
  endloop
endfacet
facet normal 0.0 0.0 -1.0
  outer loop
    vertex 12.020101012677666 26.979898987322333 -3.524958103184872e-15
    vertex 0.0 35.0 0.0
    vertex 12.599999999999998 27.424871130596426 -3.524958103184872e-15
  endloop
endfacet
facet normal 0.0 0.0 -1.0
  outer loop
    vertex 12.599999999999998 27.424871130596426 -3.524958103184872e-15
    vertex 0.0 35.0 0.0
    vertex 28.0 35.0 0.0
  endloop
endfacet
facet normal 0.0 0.0 -1.0
  outer loop
    vertex 0.0 0.0 0.0
    vertex 11.57512886940357 26.399999999999995 -3.524958103184872e-15
    vertex 11.295407686390607 25.724693326287056 -3.524958103184872e-15
  endloop
endfacet
facet normal 0.0 0.0 -1.0
  outer loop
    vertex 0.0 0.0 0.0
    vertex 11.295407686390607 25.724693326287056 -3.524958103184872e-15
    vertex 11.2 25.0 -3.524958103184872e-15
  endloop
endfacet
facet normal 0.0 0.0 -1.0
  outer loop
    vertex 0.0 0.0 0.0
    vertex 11.2 25.0 -3.524958103184872e-15
    vertex 10.1 0.0 0.0
  endloop
endfacet
facet normal 0.0 0.0 -1.0
  outer loop
    vertex 10.1 0.0 0.0
    vertex 11.2 25.0 -3.524958103184872e-15
    vertex 10.1 -1.6000000000000003 0.0
  endloop
endfacet
facet normal 0.0 0.0 -1.0
  outer loop
    vertex 12.599999999999998 27.424871130596426 -3.524958103184872e-15
    vertex 28.0 35.0 0.0
    vertex 13.275306673712942 27.70459231360939 -3.524958103184872e-15
  endloop
endfacet
facet normal 0.0 0.0 -1.0
  outer loop
    vertex 13.275306673712942 27.70459231360939 -3.524958103184872e-15
    vertex 28.0 35.0 0.0
    vertex 14.0 27.8 -3.524958103184872e-15
  endloop
endfacet
facet normal 0.0 0.0 -1.0
  outer loop
    vertex 14.0 27.8 -3.524958103184872e-15
    vertex 28.0 35.0 0.0
    vertex 14.724693326287056 27.704592313609393 -3.524958103184872e-15
  endloop
endfacet
facet normal 0.0 0.0 -1.0
  outer loop
    vertex 14.724693326287056 27.704592313609393 -3.524958103184872e-15
    vertex 28.0 35.0 0.0
    vertex 15.4 27.424871130596433 -3.524958103184872e-15
  endloop
endfacet
facet normal 0.0 0.0 -1.0
  outer loop
    vertex 15.4 27.424871130596433 -3.524958103184872e-15
    vertex 28.0 35.0 0.0
    vertex 15.979898987322333 26.979898987322333 -3.524958103184872e-15
  endloop
endfacet
facet normal 0.0 0.0 -1.0
  outer loop
    vertex 15.979898987322333 26.979898987322333 -3.524958103184872e-15
    vertex 28.0 35.0 0.0
    vertex 16.42487113059643 26.400000000000002 -3.524958103184872e-15
  endloop
endfacet
facet normal 0.0 0.0 -1.0
  outer loop
    vertex 16.42487113059643 26.400000000000002 -3.524958103184872e-15
    vertex 28.0 35.0 0.0
    vertex 16.704592313609393 25.72469332628706 -3.524958103184872e-15
  endloop
endfacet
facet normal 0.0 0.0 -1.0
  outer loop
    vertex 16.704592313609393 25.72469332628706 -3.524958103184872e-15
    vertex 28.0 35.0 0.0
    vertex 16.8 25.0 -3.524958103184872e-15
  endloop
endfacet
facet normal 0.0 0.0 -1.0
  outer loop
    vertex 16.8 25.0 -3.524958103184872e-15
    vertex 28.0 35.0 0.0
    vertex 17.900000000000002 0.0 0.0
  endloop
endfacet
facet normal 0.0 0.0 -1.0
  outer loop
    vertex 17.900000000000002 0.0 0.0
    vertex 28.0 35.0 0.0
    vertex 28.0 0.0 0.0
  endloop
endfacet
facet normal 0.0 0.0 -1.0
  outer loop
    vertex 10.1 -1.6000000000000003 0.0
    vertex 11.295407686390607 24.275306673712937 -3.524958103184872e-15
    vertex 17.900000000000002 -1.6000000000000003 0.0
  endloop
endfacet
facet normal 0.0 0.0 -1.0
  outer loop
    vertex 11.295407686390607 24.275306673712937 -3.524958103184872e-15
    vertex 10.1 -1.6000000000000003 0.0
    vertex 11.2 25.0 -3.524958103184872e-15
  endloop
endfacet
facet normal 0.0 0.0 -1.0
  outer loop
    vertex 17.900000000000002 -1.6000000000000003 0.0
    vertex 11.295407686390607 24.275306673712937 -3.524958103184872e-15
    vertex 11.57512886940357 23.599999999999998 -3.524958103184872e-15
  endloop
endfacet
facet normal 0.0 0.0 -1.0
  outer loop
    vertex 17.900000000000002 -1.6000000000000003 0.0
    vertex 11.57512886940357 23.599999999999998 -3.524958103184872e-15
    vertex 12.020101012677666 23.020101012677667 -3.524958103184872e-15
  endloop
endfacet
facet normal 0.0 0.0 -1.0
  outer loop
    vertex 17.900000000000002 -1.6000000000000003 0.0
    vertex 12.020101012677666 23.020101012677667 -3.524958103184872e-15
    vertex 12.6 22.57512886940357 -3.524958103184872e-15
  endloop
endfacet
facet normal 0.0 0.0 -1.0
  outer loop
    vertex 17.900000000000002 -1.6000000000000003 0.0
    vertex 12.6 22.57512886940357 -3.524958103184872e-15
    vertex 13.275306673712942 22.295407686390607 -3.524958103184872e-15
  endloop
endfacet
facet normal 0.0 0.0 -1.0
  outer loop
    vertex 17.900000000000002 -1.6000000000000003 0.0
    vertex 13.275306673712942 22.295407686390607 -3.524958103184872e-15
    vertex 14.0 22.2 -3.524958103184872e-15
  endloop
endfacet
facet normal 0.0 0.0 -1.0
  outer loop
    vertex 17.900000000000002 -1.6000000000000003 0.0
    vertex 14.0 22.2 -3.524958103184872e-15
    vertex 14.724693326287062 22.295407686390607 -3.524958103184872e-15
  endloop
endfacet
facet normal 0.0 0.0 -1.0
  outer loop
    vertex 17.900000000000002 -1.6000000000000003 0.0
    vertex 14.724693326287062 22.295407686390607 -3.524958103184872e-15
    vertex 15.4 22.57512886940357 -3.524958103184872e-15
  endloop
endfacet
facet normal 0.0 0.0 -1.0
  outer loop
    vertex 17.900000000000002 -1.6000000000000003 0.0
    vertex 15.4 22.57512886940357 -3.524958103184872e-15
    vertex 15.979898987322333 23.020101012677667 -3.524958103184872e-15
  endloop
endfacet
facet normal 0.0 0.0 -1.0
  outer loop
    vertex 17.900000000000002 -1.6000000000000003 0.0
    vertex 15.979898987322333 23.020101012677667 -3.524958103184872e-15
    vertex 16.42487113059643 23.6 -3.524958103184872e-15
  endloop
endfacet
facet normal 0.0 0.0 -1.0
  outer loop
    vertex 17.900000000000002 -1.6000000000000003 0.0
    vertex 16.42487113059643 23.6 -3.524958103184872e-15
    vertex 16.704592313609393 24.275306673712944 -3.524958103184872e-15
  endloop
endfacet
facet normal 0.0 0.0 -1.0
  outer loop
    vertex 17.900000000000002 -1.6000000000000003 0.0
    vertex 16.704592313609393 24.275306673712944 -3.524958103184872e-15
    vertex 16.8 25.0 -3.524958103184872e-15
  endloop
endfacet
facet normal 0.0 0.0 -1.0
  outer loop
    vertex 17.900000000000002 -1.6000000000000003 0.0
    vertex 16.8 25.0 -3.524958103184872e-15
    vertex 17.900000000000002 0.0 0.0
  endloop
endfacet
facet normal -0.0 -0.0 1.0
  outer loop
    vertex 28.0 0.0 35.0
    vertex 0.0 3.9999999999999996 35.0
    vertex 0.0 0.0 35.0
  endloop
endfacet
facet normal -0.0 -0.0 1.0
  outer loop
    vertex 0.0 3.9999999999999996 35.0
    vertex 28.0 0.0 35.0
    vertex 3.999999999999999 3.9999999999999996 35.0
  endloop
endfacet
facet normal -0.0 -0.0 1.0
  outer loop
    vertex 3.999999999999999 3.9999999999999996 35.0
    vertex 28.0 0.0 35.0
    vertex 24.0 3.999999999999999 35.0
  endloop
endfacet
facet normal -0.0 -0.0 1.0
  outer loop
    vertex 24.0 3.999999999999999 35.0
    vertex 28.0 0.0 35.0
    vertex 28.0 3.9999999999999996 35.0
  endloop
endfacet
facet normal 1.0 -0.0 -0.0
  outer loop
    vertex 28.0 35.0 0.0
    vertex 28.0 0.0 35.0
    vertex 28.0 0.0 0.0
  endloop
endfacet
facet normal 1.0 -0.0 -0.0
  outer loop
    vertex 28.0 0.0 35.0
    vertex 28.0 35.0 0.0
    vertex 28.0 3.9999999999999996 35.0
  endloop
endfacet
facet normal 1.0 -0.0 -0.0
  outer loop
    vertex 28.0 3.9999999999999996 35.0
    vertex 28.0 35.0 0.0
    vertex 28.0 35.0 3.9999999999999996
  endloop
endfacet
facet normal -0.0 1.0 0.0
  outer loop
    vertex 0.0 35.0 3.9999999999999996
    vertex 28.0 35.0 0.0
    vertex 0.0 35.0 0.0
  endloop
endfacet
facet normal -0.0 1.0 0.0
  outer loop
    vertex 28.0 35.0 0.0
    vertex 0.0 35.0 3.9999999999999996
    vertex 28.0 35.0 3.9999999999999996
  endloop
endfacet
facet normal -0.0 1.0 0.0
  outer loop
    vertex 28.0 35.0 3.9999999999999996
    vertex 0.0 35.0 3.9999999999999996
    vertex 3.9999999999999996 35.0 3.9999999999999996
  endloop
endfacet
facet normal -0.0 1.0 0.0
  outer loop
    vertex 28.0 35.0 3.9999999999999996
    vertex 3.9999999999999996 35.0 3.9999999999999996
    vertex 24.0 35.0 3.9999999999999996
  endloop
endfacet
facet normal -1.0 0.0 0.0
  outer loop
    vertex 0.0 3.9999999999999996 35.0
    vertex 0.0 0.0 0.0
    vertex 0.0 0.0 35.0
  endloop
endfacet
facet normal -1.0 0.0 0.0
  outer loop
    vertex 0.0 0.0 0.0
    vertex 0.0 3.9999999999999996 35.0
    vertex 0.0 35.0 0.0
  endloop
endfacet
facet normal -1.0 0.0 0.0
  outer loop
    vertex 0.0 35.0 0.0
    vertex 0.0 3.9999999999999996 35.0
    vertex 0.0 35.0 3.9999999999999996
  endloop
endfacet
facet normal -0.9238795325112867 0.0 0.38268343236508995
  outer loop
    vertex 16.704592313609393 3.9999999999999982 24.275306673712937
    vertex 16.42487113059643 1.8506030041720577e-15 23.599999999999998
    vertex 16.704592313609393 1.8506030041720577e-15 24.275306673712937
  endloop
endfacet
facet normal -0.9238795325112867 0.0 0.38268343236508995
  outer loop
    vertex 16.42487113059643 1.8506030041720577e-15 23.599999999999998
    vertex 16.704592313609393 3.9999999999999982 24.275306673712937
    vertex 16.42487113059643 3.9999999999999982 23.599999999999998
  endloop
endfacet
facet normal 0.38268343236509 0.9238795325112867 -0.0
  outer loop
    vertex 12.6 22.57512886940357 3.9999999999999996
    vertex 13.275306673712942 22.295407686390607 -3.524958103184872e-15
    vertex 12.6 22.57512886940357 -3.524958103184872e-15
  endloop
endfacet
facet normal 0.38268343236509 0.9238795325112867 -0.0
  outer loop
    vertex 13.275306673712942 22.295407686390607 -3.524958103184872e-15
    vertex 12.6 22.57512886940357 3.9999999999999996
    vertex 13.275306673712942 22.295407686390607 3.9999999999999996
  endloop
endfacet
facet normal -0.9238795325112867 0.38268343236509 0.0
  outer loop
    vertex 16.704592313609393 24.275306673712944 3.9999999999999996
    vertex 16.42487113059643 23.6 -3.524958103184872e-15
    vertex 16.42487113059643 23.6 3.9999999999999996
  endloop
endfacet
facet normal -0.9238795325112867 0.38268343236509 0.0
  outer loop
    vertex 16.42487113059643 23.6 -3.524958103184872e-15
    vertex 16.704592313609393 24.275306673712944 3.9999999999999996
    vertex 16.704592313609393 24.275306673712944 -3.524958103184872e-15
  endloop
endfacet
facet normal -0.7933533402912336 6.373928471304951e-32 0.6087614290087227
  outer loop
    vertex 16.42487113059643 3.9999999999999982 23.599999999999998
    vertex 15.979898987322333 1.8506030041720577e-15 23.020101012677667
    vertex 16.42487113059643 1.8506030041720577e-15 23.599999999999998
  endloop
endfacet
facet normal -0.7933533402912336 6.373928471304951e-32 0.6087614290087227
  outer loop
    vertex 15.979898987322333 1.8506030041720577e-15 23.020101012677667
    vertex 16.42487113059643 3.9999999999999982 23.599999999999998
    vertex 15.979898987322333 3.9999999999999982 23.020101012677667
  endloop
endfacet
facet normal 0.6087614290087194 -0.793353340291236 -3.4683616725065172e-18
  outer loop
    vertex 12.599999999999998 27.424871130596426 3.9999999999999996
    vertex 12.020101012677666 26.979898987322333 -3.524958103184872e-15
    vertex 12.599999999999998 27.424871130596426 -3.524958103184872e-15
  endloop
endfacet
facet normal 0.6087614290087194 -0.793353340291236 -3.4683616725065172e-18
  outer loop
    vertex 12.020101012677666 26.979898987322333 -3.524958103184872e-15
    vertex 12.599999999999998 27.424871130596426 3.9999999999999996
    vertex 12.020101012677666 26.979898987322333 3.9999999999999996
  endloop
endfacet
facet normal -0.6087614290087233 -0.7933533402912331 -7.5640614209815e-32
  outer loop
    vertex 15.979898987322333 26.979898987322333 3.9999999999999996
    vertex 15.4 27.424871130596433 -3.524958103184872e-15
    vertex 15.979898987322333 26.979898987322333 -3.524958103184872e-15
  endloop
endfacet
facet normal -0.6087614290087233 -0.7933533402912331 -7.5640614209815e-32
  outer loop
    vertex 15.4 27.424871130596433 -3.524958103184872e-15
    vertex 15.979898987322333 26.979898987322333 3.9999999999999996
    vertex 15.4 27.424871130596433 3.9999999999999996
  endloop
endfacet
facet normal -0.608761429008721 0.7933533402912349 -1.7421738186533823e-31
  outer loop
    vertex 15.4 22.57512886940357 3.9999999999999996
    vertex 15.979898987322333 23.020101012677667 -3.524958103184872e-15
    vertex 15.4 22.57512886940357 -3.524958103184872e-15
  endloop
endfacet
facet normal -0.608761429008721 0.7933533402912349 -1.7421738186533823e-31
  outer loop
    vertex 15.979898987322333 23.020101012677667 -3.524958103184872e-15
    vertex 15.4 22.57512886940357 3.9999999999999996
    vertex 15.979898987322333 23.020101012677667 3.9999999999999996
  endloop
endfacet
facet normal -0.9914448613738107 -0.13052619222005044 -1.2319029211754694e-31
  outer loop
    vertex 16.704592313609393 25.72469332628706 3.9999999999999996
    vertex 16.8 25.0 -3.524958103184872e-15
    vertex 16.8 25.0 3.9999999999999996
  endloop
endfacet
facet normal -0.9914448613738107 -0.13052619222005044 -1.2319029211754694e-31
  outer loop
    vertex 16.8 25.0 -3.524958103184872e-15
    vertex 16.704592313609393 25.72469332628706 3.9999999999999996
    vertex 16.704592313609393 25.72469332628706 -3.524958103184872e-15
  endloop
endfacet
facet normal -0.38268343236509134 0.9238795325112862 3.3460111204194964e-18
  outer loop
    vertex 14.724693326287062 22.295407686390607 3.9999999999999996
    vertex 15.4 22.57512886940357 -3.524958103184872e-15
    vertex 14.724693326287062 22.295407686390607 -3.524958103184872e-15
  endloop
endfacet
facet normal -0.38268343236509134 0.9238795325112862 3.3460111204194964e-18
  outer loop
    vertex 15.4 22.57512886940357 -3.524958103184872e-15
    vertex 14.724693326287062 22.295407686390607 3.9999999999999996
    vertex 15.4 22.57512886940357 3.9999999999999996
  endloop
endfacet
facet normal 0.13052619222005465 -0.99144486137381 -1.1412620817554778e-18
  outer loop
    vertex 14.0 27.8 3.9999999999999996
    vertex 13.275306673712942 27.70459231360939 -3.524958103184872e-15
    vertex 14.0 27.8 -3.524958103184872e-15
  endloop
endfacet
facet normal 0.13052619222005465 -0.99144486137381 -1.1412620817554778e-18
  outer loop
    vertex 13.275306673712942 27.70459231360939 -3.524958103184872e-15
    vertex 14.0 27.8 3.9999999999999996
    vertex 13.275306673712942 27.70459231360939 3.9999999999999996
  endloop
endfacet
facet normal 0.9914448613738105 -0.1305261922200514 3.243661927159181e-32
  outer loop
    vertex 11.295407686390607 25.724693326287056 -3.524958103184872e-15
    vertex 11.2 25.0 3.9999999999999996
    vertex 11.2 25.0 -3.524958103184872e-15
  endloop
endfacet
facet normal 0.9914448613738105 -0.1305261922200514 3.243661927159181e-32
  outer loop
    vertex 11.2 25.0 3.9999999999999996
    vertex 11.295407686390607 25.724693326287056 -3.524958103184872e-15
    vertex 11.295407686390607 25.724693326287056 3.9999999999999996
  endloop
endfacet
facet normal 0.9238795325112867 0.38268343236509 -0.0
  outer loop
    vertex 11.295407686390607 24.275306673712937 -3.524958103184872e-15
    vertex 11.57512886940357 23.599999999999998 3.9999999999999996
    vertex 11.57512886940357 23.599999999999998 -3.524958103184872e-15
  endloop
endfacet
facet normal 0.9238795325112867 0.38268343236509 -0.0
  outer loop
    vertex 11.57512886940357 23.599999999999998 3.9999999999999996
    vertex 11.295407686390607 24.275306673712937 -3.524958103184872e-15
    vertex 11.295407686390607 24.275306673712937 3.9999999999999996
  endloop
endfacet
facet normal -0.13052619222005044 0.9914448613738107 1.2319029211754694e-31
  outer loop
    vertex 14.0 22.2 3.9999999999999996
    vertex 14.724693326287062 22.295407686390607 -3.524958103184872e-15
    vertex 14.0 22.2 -3.524958103184872e-15
  endloop
endfacet
facet normal -0.13052619222005044 0.9914448613738107 1.2319029211754694e-31
  outer loop
    vertex 14.724693326287062 22.295407686390607 -3.524958103184872e-15
    vertex 14.0 22.2 3.9999999999999996
    vertex 14.724693326287062 22.295407686390607 3.9999999999999996
  endloop
endfacet
facet normal 0.1305261922200509 0.9914448613738105 -1.141262081755568e-18
  outer loop
    vertex 13.275306673712942 22.295407686390607 3.9999999999999996
    vertex 14.0 22.2 -3.524958103184872e-15
    vertex 13.275306673712942 22.295407686390607 -3.524958103184872e-15
  endloop
endfacet
facet normal 0.1305261922200509 0.9914448613738105 -1.141262081755568e-18
  outer loop
    vertex 14.0 22.2 -3.524958103184872e-15
    vertex 13.275306673712942 22.295407686390607 3.9999999999999996
    vertex 14.0 22.2 3.9999999999999996
  endloop
endfacet
facet normal -0.7933533402912336 -0.6087614290087228 2.498579960751532e-31
  outer loop
    vertex 15.979898987322333 26.979898987322333 3.9999999999999996
    vertex 16.42487113059643 26.400000000000002 -3.524958103184872e-15
    vertex 16.42487113059643 26.400000000000002 3.9999999999999996
  endloop
endfacet
facet normal -0.7933533402912336 -0.6087614290087228 2.498579960751532e-31
  outer loop
    vertex 16.42487113059643 26.400000000000002 -3.524958103184872e-15
    vertex 15.979898987322333 26.979898987322333 3.9999999999999996
    vertex 15.979898987322333 26.979898987322333 -3.524958103184872e-15
  endloop
endfacet
facet normal 0.38268343236508934 -0.9238795325112871 2.3774838953866086e-32
  outer loop
    vertex 13.275306673712942 27.70459231360939 3.9999999999999996
    vertex 12.599999999999998 27.424871130596426 -3.524958103184872e-15
    vertex 13.275306673712942 27.70459231360939 -3.524958103184872e-15
  endloop
endfacet
facet normal 0.38268343236508934 -0.9238795325112871 2.3774838953866086e-32
  outer loop
    vertex 12.599999999999998 27.424871130596426 -3.524958103184872e-15
    vertex 13.275306673712942 27.70459231360939 3.9999999999999996
    vertex 12.599999999999998 27.424871130596426 3.9999999999999996
  endloop
endfacet
facet normal 0.9914448613738107 0.13052619222005044 1.2319029211754694e-31
  outer loop
    vertex 11.2 25.0 -3.524958103184872e-15
    vertex 11.295407686390607 24.275306673712937 3.9999999999999996
    vertex 11.295407686390607 24.275306673712937 -3.524958103184872e-15
  endloop
endfacet
facet normal 0.9914448613738107 0.13052619222005044 1.2319029211754694e-31
  outer loop
    vertex 11.295407686390607 24.275306673712937 3.9999999999999996
    vertex 11.2 25.0 -3.524958103184872e-15
    vertex 11.2 25.0 3.9999999999999996
  endloop
endfacet
facet normal -0.7933533402912364 0.6087614290087191 9.857676765552368e-32
  outer loop
    vertex 16.42487113059643 23.6 3.9999999999999996
    vertex 15.979898987322333 23.020101012677667 -3.524958103184872e-15
    vertex 15.979898987322333 23.020101012677667 3.9999999999999996
  endloop
endfacet
facet normal -0.7933533402912364 0.6087614290087191 9.857676765552368e-32
  outer loop
    vertex 15.979898987322333 23.020101012677667 -3.524958103184872e-15
    vertex 16.42487113059643 23.6 3.9999999999999996
    vertex 16.42487113059643 23.6 -3.524958103184872e-15
  endloop
endfacet
facet normal 0.7933533402912336 0.6087614290087228 1.5128122841962986e-31
  outer loop
    vertex 11.57512886940357 23.599999999999998 -3.524958103184872e-15
    vertex 12.020101012677666 23.020101012677667 3.9999999999999996
    vertex 12.020101012677666 23.020101012677667 -3.524958103184872e-15
  endloop
endfacet
facet normal 0.7933533402912336 0.6087614290087228 1.5128122841962986e-31
  outer loop
    vertex 12.020101012677666 23.020101012677667 3.9999999999999996
    vertex 11.57512886940357 23.599999999999998 -3.524958103184872e-15
    vertex 11.57512886940357 23.599999999999998 3.9999999999999996
  endloop
endfacet
facet normal -0.9914448613738105 0.1305261922200514 -9.075367284595508e-32
  outer loop
    vertex 16.8 25.0 3.9999999999999996
    vertex 16.704592313609393 24.275306673712944 -3.524958103184872e-15
    vertex 16.704592313609393 24.275306673712944 3.9999999999999996
  endloop
endfacet
facet normal -0.9914448613738105 0.1305261922200514 -9.075367284595508e-32
  outer loop
    vertex 16.704592313609393 24.275306673712944 -3.524958103184872e-15
    vertex 16.8 25.0 3.9999999999999996
    vertex 16.8 25.0 -3.524958103184872e-15
  endloop
endfacet
facet normal -0.9238795325112867 -0.38268343236509 3.3460111204194363e-18
  outer loop
    vertex 16.42487113059643 26.400000000000002 3.9999999999999996
    vertex 16.704592313609393 25.72469332628706 -3.524958103184872e-15
    vertex 16.704592313609393 25.72469332628706 3.9999999999999996
  endloop
endfacet
facet normal -0.9238795325112867 -0.38268343236509 3.3460111204194363e-18
  outer loop
    vertex 16.704592313609393 25.72469332628706 -3.524958103184872e-15
    vertex 16.42487113059643 26.400000000000002 3.9999999999999996
    vertex 16.42487113059643 26.400000000000002 -3.524958103184872e-15
  endloop
endfacet
facet normal 0.7933533402912364 -0.6087614290087191 -9.857676765552368e-32
  outer loop
    vertex 12.020101012677666 26.979898987322333 -3.524958103184872e-15
    vertex 11.57512886940357 26.399999999999995 3.9999999999999996
    vertex 11.57512886940357 26.399999999999995 -3.524958103184872e-15
  endloop
endfacet
facet normal 0.7933533402912364 -0.6087614290087191 -9.857676765552368e-32
  outer loop
    vertex 11.57512886940357 26.399999999999995 3.9999999999999996
    vertex 12.020101012677666 26.979898987322333 -3.524958103184872e-15
    vertex 12.020101012677666 26.979898987322333 3.9999999999999996
  endloop
endfacet
facet normal 0.9238795325112867 -0.38268343236509 -3.3460111204194363e-18
  outer loop
    vertex 11.57512886940357 26.399999999999995 -3.524958103184872e-15
    vertex 11.295407686390607 25.724693326287056 3.9999999999999996
    vertex 11.295407686390607 25.724693326287056 -3.524958103184872e-15
  endloop
endfacet
facet normal 0.9238795325112867 -0.38268343236509 -3.3460111204194363e-18
  outer loop
    vertex 11.295407686390607 25.724693326287056 3.9999999999999996
    vertex 11.57512886940357 26.399999999999995 -3.524958103184872e-15
    vertex 11.57512886940357 26.399999999999995 3.9999999999999996
  endloop
endfacet
facet normal -0.3826834323650886 -0.9238795325112873 4.754967790773207e-32
  outer loop
    vertex 15.4 27.424871130596433 3.9999999999999996
    vertex 14.724693326287056 27.704592313609393 -3.524958103184872e-15
    vertex 15.4 27.424871130596433 -3.524958103184872e-15
  endloop
endfacet
facet normal -0.3826834323650886 -0.9238795325112873 4.754967790773207e-32
  outer loop
    vertex 14.724693326287056 27.704592313609393 -3.524958103184872e-15
    vertex 15.4 27.424871130596433 3.9999999999999996
    vertex 14.724693326287056 27.704592313609393 3.9999999999999996
  endloop
endfacet
facet normal -0.13052619222004758 -0.9914448613738109 -2.4638058423509387e-31
  outer loop
    vertex 14.724693326287056 27.704592313609393 3.9999999999999996
    vertex 14.0 27.8 -3.524958103184872e-15
    vertex 14.724693326287056 27.704592313609393 -3.524958103184872e-15
  endloop
endfacet
facet normal -0.13052619222004758 -0.9914448613738109 -2.4638058423509387e-31
  outer loop
    vertex 14.0 27.8 -3.524958103184872e-15
    vertex 14.724693326287056 27.704592313609393 3.9999999999999996
    vertex 14.0 27.8 3.9999999999999996
  endloop
endfacet
facet normal 0.608761429008721 0.7933533402912349 -1.7421738186533823e-31
  outer loop
    vertex 12.020101012677666 23.020101012677667 3.9999999999999996
    vertex 12.6 22.57512886940357 -3.524958103184872e-15
    vertex 12.020101012677666 23.020101012677667 -3.524958103184872e-15
  endloop
endfacet
facet normal 0.608761429008721 0.7933533402912349 -1.7421738186533823e-31
  outer loop
    vertex 12.6 22.57512886940357 -3.524958103184872e-15
    vertex 12.020101012677666 23.020101012677667 3.9999999999999996
    vertex 12.6 22.57512886940357 3.9999999999999996
  endloop
endfacet
facet normal 0.6087614290087243 9.648037526762167e-33 -0.7933533402912323
  outer loop
    vertex 12.6 3.9999999999999982 27.424871130596433
    vertex 12.020101012677667 1.8506030041720577e-15 26.979898987322333
    vertex 12.020101012677667 3.9999999999999982 26.979898987322333
  endloop
endfacet
facet normal 0.6087614290087243 9.648037526762167e-33 -0.7933533402912323
  outer loop
    vertex 12.020101012677667 1.8506030041720577e-15 26.979898987322333
    vertex 12.6 3.9999999999999982 27.424871130596433
    vertex 12.6 1.8506030041720577e-15 27.424871130596433
  endloop
endfacet
facet normal -0.38268343236508995 0.0 -0.9238795325112867
  outer loop
    vertex 15.4 3.9999999999999982 27.424871130596426
    vertex 14.724693326287058 1.8506030041720577e-15 27.70459231360939
    vertex 14.724693326287058 3.9999999999999982 27.70459231360939
  endloop
endfacet
facet normal -0.38268343236508995 0.0 -0.9238795325112867
  outer loop
    vertex 14.724693326287058 1.8506030041720577e-15 27.70459231360939
    vertex 15.4 3.9999999999999982 27.424871130596426
    vertex 15.4 1.8506030041720577e-15 27.424871130596426
  endloop
endfacet
facet normal -0.6087614290087184 -2.7156811381489596e-18 -0.7933533402912368
  outer loop
    vertex 15.979898987322333 3.9999999999999982 26.979898987322333
    vertex 15.4 1.8506030041720577e-15 27.424871130596426
    vertex 15.4 3.9999999999999982 27.424871130596426
  endloop
endfacet
facet normal -0.6087614290087184 -2.7156811381489596e-18 -0.7933533402912368
  outer loop
    vertex 15.4 1.8506030041720577e-15 27.424871130596426
    vertex 15.979898987322333 3.9999999999999982 26.979898987322333
    vertex 15.979898987322333 1.8506030041720577e-15 26.979898987322333
  endloop
endfacet
facet normal -0.9238795325112867 1.707148530826322e-18 -0.38268343236508995
  outer loop
    vertex 16.42487113059643 3.9999999999999982 26.399999999999995
    vertex 16.704592313609393 1.8506030041720577e-15 25.724693326287056
    vertex 16.42487113059643 1.8506030041720577e-15 26.399999999999995
  endloop
endfacet
facet normal -0.9238795325112867 1.707148530826322e-18 -0.38268343236508995
  outer loop
    vertex 16.704592313609393 1.8506030041720577e-15 25.724693326287056
    vertex 16.42487113059643 3.9999999999999982 26.399999999999995
    vertex 16.704592313609393 3.9999999999999982 25.724693326287056
  endloop
endfacet
facet normal -0.9914448613738105 -2.315144715458046e-32 -0.1305261922200514
  outer loop
    vertex 16.704592313609393 3.9999999999999982 25.724693326287056
    vertex 16.8 1.8506030041720577e-15 25.0
    vertex 16.704592313609393 1.8506030041720577e-15 25.724693326287056
  endloop
endfacet
facet normal -0.9914448613738105 -2.315144715458046e-32 -0.1305261922200514
  outer loop
    vertex 16.8 1.8506030041720577e-15 25.0
    vertex 16.704592313609393 3.9999999999999982 25.724693326287056
    vertex 16.8 3.9999999999999982 25.0
  endloop
endfacet
facet normal -0.13052619222005468 4.137323886682749e-33 -0.99144486137381
  outer loop
    vertex 14.724693326287058 3.9999999999999982 27.70459231360939
    vertex 14.0 1.8506030041720577e-15 27.8
    vertex 14.0 3.9999999999999982 27.8
  endloop
endfacet
facet normal -0.13052619222005468 4.137323886682749e-33 -0.99144486137381
  outer loop
    vertex 14.0 1.8506030041720577e-15 27.8
    vertex 14.724693326287058 3.9999999999999982 27.70459231360939
    vertex 14.724693326287058 1.8506030041720577e-15 27.70459231360939
  endloop
endfacet
facet normal 0.9238795325112867 -1.707148530826322e-18 -0.38268343236508995
  outer loop
    vertex 11.29540768639061 3.9999999999999982 25.72469332628706
    vertex 11.575128869403573 1.8506030041720577e-15 26.400000000000002
    vertex 11.29540768639061 1.8506030041720577e-15 25.72469332628706
  endloop
endfacet
facet normal 0.9238795325112867 -1.707148530826322e-18 -0.38268343236508995
  outer loop
    vertex 11.575128869403573 1.8506030041720577e-15 26.400000000000002
    vertex 11.29540768639061 3.9999999999999982 25.72469332628706
    vertex 11.575128869403573 3.9999999999999982 26.400000000000002
  endloop
endfacet
facet normal 0.9914448613738105 8.274647773365289e-33 0.1305261922200514
  outer loop
    vertex 11.295407686390607 3.9999999999999982 24.275306673712944
    vertex 11.2 1.8506030041720577e-15 25.0
    vertex 11.295407686390607 1.8506030041720577e-15 24.275306673712944
  endloop
endfacet
facet normal 0.9914448613738105 8.274647773365289e-33 0.1305261922200514
  outer loop
    vertex 11.2 1.8506030041720577e-15 25.0
    vertex 11.295407686390607 3.9999999999999982 24.275306673712944
    vertex 11.2 3.9999999999999982 25.0
  endloop
endfacet
facet normal 0.1305261922200476 -6.285218985589152e-32 -0.9914448613738109
  outer loop
    vertex 14.0 3.9999999999999982 27.8
    vertex 13.275306673712944 1.8506030041720577e-15 27.704592313609393
    vertex 13.275306673712944 3.9999999999999982 27.704592313609393
  endloop
endfacet
facet normal 0.1305261922200476 -6.285218985589152e-32 -0.9914448613738109
  outer loop
    vertex 13.275306673712944 1.8506030041720577e-15 27.704592313609393
    vertex 14.0 3.9999999999999982 27.8
    vertex 14.0 1.8506030041720577e-15 27.8
  endloop
endfacet
facet normal 0.13052619222005044 3.1426094927945755e-32 0.9914448613738107
  outer loop
    vertex 14.0 1.8506030041720577e-15 22.2
    vertex 13.275306673712938 3.9999999999999982 22.295407686390607
    vertex 13.275306673712938 1.8506030041720577e-15 22.295407686390607
  endloop
endfacet
facet normal 0.13052619222005044 3.1426094927945755e-32 0.9914448613738107
  outer loop
    vertex 13.275306673712938 3.9999999999999982 22.295407686390607
    vertex 14.0 1.8506030041720577e-15 22.2
    vertex 14.0 3.9999999999999982 22.2
  endloop
endfacet
facet normal 0.7933533402912336 3.8592150107048575e-32 -0.6087614290087227
  outer loop
    vertex 11.575128869403573 3.9999999999999982 26.400000000000002
    vertex 12.020101012677667 1.8506030041720577e-15 26.979898987322333
    vertex 11.575128869403573 1.8506030041720577e-15 26.400000000000002
  endloop
endfacet
facet normal 0.7933533402912336 3.8592150107048575e-32 -0.6087614290087227
  outer loop
    vertex 12.020101012677667 1.8506030041720577e-15 26.979898987322333
    vertex 11.575128869403573 3.9999999999999982 26.400000000000002
    vertex 12.020101012677667 3.9999999999999982 26.979898987322333
  endloop
endfacet
facet normal 0.9238795325112867 -0.0 0.38268343236508995
  outer loop
    vertex 11.57512886940357 3.9999999999999982 23.6
    vertex 11.295407686390607 1.8506030041720577e-15 24.275306673712944
    vertex 11.57512886940357 1.8506030041720577e-15 23.6
  endloop
endfacet
facet normal 0.9238795325112867 -0.0 0.38268343236508995
  outer loop
    vertex 11.295407686390607 1.8506030041720577e-15 24.275306673712944
    vertex 11.57512886940357 3.9999999999999982 23.6
    vertex 11.295407686390607 3.9999999999999982 24.275306673712944
  endloop
endfacet
facet normal -0.13052619222005094 -2.7288771041263124e-32 0.9914448613738105
  outer loop
    vertex 14.724693326287058 1.8506030041720577e-15 22.295407686390607
    vertex 14.0 3.9999999999999982 22.2
    vertex 14.0 1.8506030041720577e-15 22.2
  endloop
endfacet
facet normal -0.13052619222005094 -2.7288771041263124e-32 0.9914448613738105
  outer loop
    vertex 14.0 3.9999999999999982 22.2
    vertex 14.724693326287058 1.8506030041720577e-15 22.295407686390607
    vertex 14.724693326287058 3.9999999999999982 22.295407686390607
  endloop
endfacet
facet normal -0.7933533402912364 2.514713460600103e-32 -0.608761429008719
  outer loop
    vertex 15.979898987322333 3.9999999999999982 26.979898987322333
    vertex 16.42487113059643 1.8506030041720577e-15 26.399999999999995
    vertex 15.979898987322333 1.8506030041720577e-15 26.979898987322333
  endloop
endfacet
facet normal -0.7933533402912364 2.514713460600103e-32 -0.608761429008719
  outer loop
    vertex 16.42487113059643 1.8506030041720577e-15 26.399999999999995
    vertex 15.979898987322333 3.9999999999999982 26.979898987322333
    vertex 16.42487113059643 3.9999999999999982 26.399999999999995
  endloop
endfacet
facet normal -0.9914448613738107 -3.1426094927945755e-32 0.13052619222005044
  outer loop
    vertex 16.8 3.9999999999999982 25.0
    vertex 16.704592313609393 1.8506030041720577e-15 24.275306673712937
    vertex 16.8 1.8506030041720577e-15 25.0
  endloop
endfacet
facet normal -0.9914448613738107 -3.1426094927945755e-32 0.13052619222005044
  outer loop
    vertex 16.704592313609393 1.8506030041720577e-15 24.275306673712937
    vertex 16.8 3.9999999999999982 25.0
    vertex 16.704592313609393 3.9999999999999982 24.275306673712937
  endloop
endfacet
facet normal -0.38268343236508995 -0.0 0.9238795325112867
  outer loop
    vertex 15.4 1.8506030041720577e-15 22.57512886940357
    vertex 14.724693326287058 3.9999999999999982 22.295407686390607
    vertex 14.724693326287058 1.8506030041720577e-15 22.295407686390607
  endloop
endfacet
facet normal -0.38268343236508995 -0.0 0.9238795325112867
  outer loop
    vertex 14.724693326287058 3.9999999999999982 22.295407686390607
    vertex 15.4 1.8506030041720577e-15 22.57512886940357
    vertex 15.4 3.9999999999999982 22.57512886940357
  endloop
endfacet
facet normal 0.6087614290087219 -3.4795172132763086e-32 0.7933533402912342
  outer loop
    vertex 12.599999999999998 1.8506030041720577e-15 22.57512886940357
    vertex 12.020101012677666 3.9999999999999982 23.020101012677667
    vertex 12.020101012677666 1.8506030041720577e-15 23.020101012677667
  endloop
endfacet
facet normal 0.6087614290087219 -3.4795172132763086e-32 0.7933533402912342
  outer loop
    vertex 12.020101012677666 3.9999999999999982 23.020101012677667
    vertex 12.599999999999998 1.8506030041720577e-15 22.57512886940357
    vertex 12.599999999999998 3.9999999999999982 22.57512886940357
  endloop
endfacet
facet normal -0.608761429008721 -2.7156811381489453e-18 0.7933533402912348
  outer loop
    vertex 15.979898987322333 1.8506030041720577e-15 23.020101012677667
    vertex 15.4 3.9999999999999982 22.57512886940357
    vertex 15.4 1.8506030041720577e-15 22.57512886940357
  endloop
endfacet
facet normal -0.608761429008721 -2.7156811381489453e-18 0.7933533402912348
  outer loop
    vertex 15.4 3.9999999999999982 22.57512886940357
    vertex 15.979898987322333 1.8506030041720577e-15 23.020101012677667
    vertex 15.979898987322333 3.9999999999999982 23.020101012677667
  endloop
endfacet
facet normal 0.9914448613738103 1.571304746397287e-32 -0.1305261922200523
  outer loop
    vertex 11.2 3.9999999999999982 25.0
    vertex 11.29540768639061 1.8506030041720577e-15 25.72469332628706
    vertex 11.2 1.8506030041720577e-15 25.0
  endloop
endfacet
facet normal 0.9914448613738103 1.571304746397287e-32 -0.1305261922200523
  outer loop
    vertex 11.29540768639061 1.8506030041720577e-15 25.72469332628706
    vertex 11.2 3.9999999999999982 25.0
    vertex 11.29540768639061 3.9999999999999982 25.72469332628706
  endloop
endfacet
facet normal 0.7933533402912364 -2.514713460600103e-32 0.608761429008719
  outer loop
    vertex 12.020101012677666 3.9999999999999982 23.020101012677667
    vertex 11.57512886940357 1.8506030041720577e-15 23.6
    vertex 12.020101012677666 1.8506030041720577e-15 23.020101012677667
  endloop
endfacet
facet normal 0.7933533402912364 -2.514713460600103e-32 0.608761429008719
  outer loop
    vertex 11.57512886940357 1.8506030041720577e-15 23.6
    vertex 12.020101012677666 3.9999999999999982 23.020101012677667
    vertex 11.57512886940357 3.9999999999999982 23.6
  endloop
endfacet
facet normal 0.38268343236509056 -6.0650099372107775e-33 0.9238795325112865
  outer loop
    vertex 13.275306673712938 1.8506030041720577e-15 22.295407686390607
    vertex 12.599999999999998 3.9999999999999982 22.57512886940357
    vertex 12.599999999999998 1.8506030041720577e-15 22.57512886940357
  endloop
endfacet
facet normal 0.38268343236509056 -6.0650099372107775e-33 0.9238795325112865
  outer loop
    vertex 12.599999999999998 3.9999999999999982 22.57512886940357
    vertex 13.275306673712938 1.8506030041720577e-15 22.295407686390607
    vertex 13.275306673712938 3.9999999999999982 22.295407686390607
  endloop
endfacet
facet normal 0.3826834323650886 1.7071485308263035e-18 -0.9238795325112873
  outer loop
    vertex 13.275306673712944 3.9999999999999982 27.704592313609393
    vertex 12.6 1.8506030041720577e-15 27.424871130596433
    vertex 12.6 3.9999999999999982 27.424871130596433
  endloop
endfacet
facet normal 0.3826834323650886 1.7071485308263035e-18 -0.9238795325112873
  outer loop
    vertex 12.6 1.8506030041720577e-15 27.424871130596433
    vertex 13.275306673712944 3.9999999999999982 27.704592313609393
    vertex 13.275306673712944 1.8506030041720577e-15 27.704592313609393
  endloop
endfacet
facet normal 1.0 -2.2741665181837883e-17 4.1664849186088164e-33
  outer loop
    vertex 3.9999999999999996 35.0 3.9999999999999996
    vertex 3.999999999999999 3.9999999999999996 35.0
    vertex 3.999999999999999 3.999999999999999 3.9999999999999996
  endloop
endfacet
facet normal -1.9784391614149002e-16 0.7071067811865476 0.7071067811865476
  outer loop
    vertex 24.0 3.999999999999999 35.0
    vertex 28.0 35.0 3.9999999999999996
    vertex 24.0 35.0 3.9999999999999996
  endloop
endfacet
facet normal -1.9784391614149002e-16 0.7071067811865476 0.7071067811865476
  outer loop
    vertex 28.0 35.0 3.9999999999999996
    vertex 24.0 3.999999999999999 35.0
    vertex 28.0 3.9999999999999996 35.0
  endloop
endfacet
facet normal 0.0 -1.0 0.0
  outer loop
    vertex 17.900000000000002 -1.6000000000000003 19.499999999999996
    vertex 10.1 -1.6000000000000003 0.0
    vertex 17.900000000000002 -1.6000000000000003 0.0
  endloop
endfacet
facet normal 0.0 -1.0 0.0
  outer loop
    vertex 10.1 -1.6000000000000003 0.0
    vertex 17.900000000000002 -1.6000000000000003 19.499999999999996
    vertex 10.1 -1.6000000000000003 19.499999999999996
  endloop
endfacet
facet normal -6.612168823927181e-33 -1.0 -4.936433754663718e-18
  outer loop
    vertex 28.0 0.0 35.0
    vertex 17.900000000000002 0.0 0.0
    vertex 28.0 0.0 0.0
  endloop
endfacet
facet normal -6.612168823927181e-33 -1.0 -4.936433754663718e-18
  outer loop
    vertex 17.900000000000002 0.0 0.0
    vertex 28.0 0.0 35.0
    vertex 17.900000000000002 -3.7893299609237376e-15 19.499999999999996
  endloop
endfacet
facet normal -6.612168823927181e-33 -1.0 -4.936433754663718e-18
  outer loop
    vertex 17.900000000000002 -3.7893299609237376e-15 19.499999999999996
    vertex 28.0 0.0 35.0
    vertex 15.979898987322333 1.8506030041720577e-15 23.020101012677667
  endloop
endfacet
facet normal -6.612168823927181e-33 -1.0 -4.936433754663718e-18
  outer loop
    vertex 17.900000000000002 -3.7893299609237376e-15 19.499999999999996
    vertex 15.979898987322333 1.8506030041720577e-15 23.020101012677667
    vertex 15.4 1.8506030041720577e-15 22.57512886940357
  endloop
endfacet
facet normal -6.612168823927181e-33 -1.0 -4.936433754663718e-18
  outer loop
    vertex 17.900000000000002 -3.7893299609237376e-15 19.499999999999996
    vertex 15.4 1.8506030041720577e-15 22.57512886940357
    vertex 10.1 -3.7893299609237376e-15 19.499999999999996
  endloop
endfacet
facet normal -6.612168823927181e-33 -1.0 -4.936433754663718e-18
  outer loop
    vertex 10.1 -3.7893299609237376e-15 19.499999999999996
    vertex 15.4 1.8506030041720577e-15 22.57512886940357
    vertex 14.724693326287058 1.8506030041720577e-15 22.295407686390607
  endloop
endfacet
facet normal -6.612168823927181e-33 -1.0 -4.936433754663718e-18
  outer loop
    vertex 10.1 -3.7893299609237376e-15 19.499999999999996
    vertex 14.724693326287058 1.8506030041720577e-15 22.295407686390607
    vertex 14.0 1.8506030041720577e-15 22.2
  endloop
endfacet
facet normal -6.612168823927181e-33 -1.0 -4.936433754663718e-18
  outer loop
    vertex 15.979898987322333 1.8506030041720577e-15 23.020101012677667
    vertex 28.0 0.0 35.0
    vertex 16.42487113059643 1.8506030041720577e-15 23.599999999999998
  endloop
endfacet
facet normal -6.612168823927181e-33 -1.0 -4.936433754663718e-18
  outer loop
    vertex 16.42487113059643 1.8506030041720577e-15 23.599999999999998
    vertex 28.0 0.0 35.0
    vertex 16.704592313609393 1.8506030041720577e-15 24.275306673712937
  endloop
endfacet
facet normal -6.612168823927181e-33 -1.0 -4.936433754663718e-18
  outer loop
    vertex 16.704592313609393 1.8506030041720577e-15 24.275306673712937
    vertex 28.0 0.0 35.0
    vertex 16.8 1.8506030041720577e-15 25.0
  endloop
endfacet
facet normal -6.612168823927181e-33 -1.0 -4.936433754663718e-18
  outer loop
    vertex 16.8 1.8506030041720577e-15 25.0
    vertex 28.0 0.0 35.0
    vertex 16.704592313609393 1.8506030041720577e-15 25.724693326287056
  endloop
endfacet
facet normal -6.612168823927181e-33 -1.0 -4.936433754663718e-18
  outer loop
    vertex 16.704592313609393 1.8506030041720577e-15 25.724693326287056
    vertex 28.0 0.0 35.0
    vertex 16.42487113059643 1.8506030041720577e-15 26.399999999999995
  endloop
endfacet
facet normal -6.612168823927181e-33 -1.0 -4.936433754663718e-18
  outer loop
    vertex 16.42487113059643 1.8506030041720577e-15 26.399999999999995
    vertex 28.0 0.0 35.0
    vertex 15.979898987322333 1.8506030041720577e-15 26.979898987322333
  endloop
endfacet
facet normal -6.612168823927181e-33 -1.0 -4.936433754663718e-18
  outer loop
    vertex 15.979898987322333 1.8506030041720577e-15 26.979898987322333
    vertex 28.0 0.0 35.0
    vertex 15.4 1.8506030041720577e-15 27.424871130596426
  endloop
endfacet
facet normal -6.612168823927181e-33 -1.0 -4.936433754663718e-18
  outer loop
    vertex 15.4 1.8506030041720577e-15 27.424871130596426
    vertex 28.0 0.0 35.0
    vertex 14.724693326287058 1.8506030041720577e-15 27.70459231360939
  endloop
endfacet
facet normal -6.612168823927181e-33 -1.0 -4.936433754663718e-18
  outer loop
    vertex 14.724693326287058 1.8506030041720577e-15 27.70459231360939
    vertex 28.0 0.0 35.0
    vertex 14.0 1.8506030041720577e-15 27.8
  endloop
endfacet
facet normal -6.612168823927181e-33 -1.0 -4.936433754663718e-18
  outer loop
    vertex 10.1 -3.7893299609237376e-15 19.499999999999996
    vertex 0.0 0.0 0.0
    vertex 10.1 0.0 0.0
  endloop
endfacet
facet normal -6.612168823927181e-33 -1.0 -4.936433754663718e-18
  outer loop
    vertex 0.0 0.0 0.0
    vertex 10.1 -3.7893299609237376e-15 19.499999999999996
    vertex 0.0 0.0 35.0
  endloop
endfacet
facet normal -6.612168823927181e-33 -1.0 -4.936433754663718e-18
  outer loop
    vertex 0.0 0.0 35.0
    vertex 10.1 -3.7893299609237376e-15 19.499999999999996
    vertex 12.020101012677666 1.8506030041720577e-15 23.020101012677667
  endloop
endfacet
facet normal -6.612168823927181e-33 -1.0 -4.936433754663718e-18
  outer loop
    vertex 12.020101012677666 1.8506030041720577e-15 23.020101012677667
    vertex 10.1 -3.7893299609237376e-15 19.499999999999996
    vertex 12.599999999999998 1.8506030041720577e-15 22.57512886940357
  endloop
endfacet
facet normal -6.612168823927181e-33 -1.0 -4.936433754663718e-18
  outer loop
    vertex 12.599999999999998 1.8506030041720577e-15 22.57512886940357
    vertex 10.1 -3.7893299609237376e-15 19.499999999999996
    vertex 13.275306673712938 1.8506030041720577e-15 22.295407686390607
  endloop
endfacet
facet normal -6.612168823927181e-33 -1.0 -4.936433754663718e-18
  outer loop
    vertex 13.275306673712938 1.8506030041720577e-15 22.295407686390607
    vertex 10.1 -3.7893299609237376e-15 19.499999999999996
    vertex 14.0 1.8506030041720577e-15 22.2
  endloop
endfacet
facet normal -6.612168823927181e-33 -1.0 -4.936433754663718e-18
  outer loop
    vertex 0.0 0.0 35.0
    vertex 12.020101012677666 1.8506030041720577e-15 23.020101012677667
    vertex 11.57512886940357 1.8506030041720577e-15 23.6
  endloop
endfacet
facet normal -6.612168823927181e-33 -1.0 -4.936433754663718e-18
  outer loop
    vertex 0.0 0.0 35.0
    vertex 11.57512886940357 1.8506030041720577e-15 23.6
    vertex 11.295407686390607 1.8506030041720577e-15 24.275306673712944
  endloop
endfacet
facet normal -6.612168823927181e-33 -1.0 -4.936433754663718e-18
  outer loop
    vertex 0.0 0.0 35.0
    vertex 11.295407686390607 1.8506030041720577e-15 24.275306673712944
    vertex 11.2 1.8506030041720577e-15 25.0
  endloop
endfacet
facet normal -6.612168823927181e-33 -1.0 -4.936433754663718e-18
  outer loop
    vertex 0.0 0.0 35.0
    vertex 11.2 1.8506030041720577e-15 25.0
    vertex 11.29540768639061 1.8506030041720577e-15 25.72469332628706
  endloop
endfacet
facet normal -6.612168823927181e-33 -1.0 -4.936433754663718e-18
  outer loop
    vertex 0.0 0.0 35.0
    vertex 11.29540768639061 1.8506030041720577e-15 25.72469332628706
    vertex 11.575128869403573 1.8506030041720577e-15 26.400000000000002
  endloop
endfacet
facet normal -6.612168823927181e-33 -1.0 -4.936433754663718e-18
  outer loop
    vertex 0.0 0.0 35.0
    vertex 11.575128869403573 1.8506030041720577e-15 26.400000000000002
    vertex 12.020101012677667 1.8506030041720577e-15 26.979898987322333
  endloop
endfacet
facet normal -6.612168823927181e-33 -1.0 -4.936433754663718e-18
  outer loop
    vertex 0.0 0.0 35.0
    vertex 12.020101012677667 1.8506030041720577e-15 26.979898987322333
    vertex 12.6 1.8506030041720577e-15 27.424871130596433
  endloop
endfacet
facet normal -6.612168823927181e-33 -1.0 -4.936433754663718e-18
  outer loop
    vertex 0.0 0.0 35.0
    vertex 12.6 1.8506030041720577e-15 27.424871130596433
    vertex 13.275306673712944 1.8506030041720577e-15 27.704592313609393
  endloop
endfacet
facet normal -6.612168823927181e-33 -1.0 -4.936433754663718e-18
  outer loop
    vertex 0.0 0.0 35.0
    vertex 13.275306673712944 1.8506030041720577e-15 27.704592313609393
    vertex 14.0 1.8506030041720577e-15 27.8
  endloop
endfacet
facet normal -6.612168823927181e-33 -1.0 -4.936433754663718e-18
  outer loop
    vertex 0.0 0.0 35.0
    vertex 14.0 1.8506030041720577e-15 27.8
    vertex 28.0 0.0 35.0
  endloop
endfacet
facet normal 3.5249581031848714e-17 1.0 -2.2741665181837887e-17
  outer loop
    vertex 3.999999999999999 3.9999999999999996 35.0
    vertex 24.0 3.9999999999999982 3.9999999999999996
    vertex 3.999999999999999 3.999999999999999 3.9999999999999996
  endloop
endfacet
facet normal 3.5249581031848714e-17 1.0 -2.2741665181837887e-17
  outer loop
    vertex 24.0 3.9999999999999982 3.9999999999999996
    vertex 3.999999999999999 3.9999999999999996 35.0
    vertex 11.57512886940357 3.9999999999999982 23.6
  endloop
endfacet
facet normal 3.5249581031848714e-17 1.0 -2.2741665181837887e-17
  outer loop
    vertex 24.0 3.9999999999999982 3.9999999999999996
    vertex 11.57512886940357 3.9999999999999982 23.6
    vertex 12.020101012677666 3.9999999999999982 23.020101012677667
  endloop
endfacet
facet normal 3.5249581031848714e-17 1.0 -2.2741665181837887e-17
  outer loop
    vertex 24.0 3.9999999999999982 3.9999999999999996
    vertex 12.020101012677666 3.9999999999999982 23.020101012677667
    vertex 12.599999999999998 3.9999999999999982 22.57512886940357
  endloop
endfacet
facet normal 3.5249581031848714e-17 1.0 -2.2741665181837887e-17
  outer loop
    vertex 24.0 3.9999999999999982 3.9999999999999996
    vertex 12.599999999999998 3.9999999999999982 22.57512886940357
    vertex 13.275306673712938 3.9999999999999982 22.295407686390607
  endloop
endfacet
facet normal 3.5249581031848714e-17 1.0 -2.2741665181837887e-17
  outer loop
    vertex 24.0 3.9999999999999982 3.9999999999999996
    vertex 13.275306673712938 3.9999999999999982 22.295407686390607
    vertex 14.0 3.9999999999999982 22.2
  endloop
endfacet
facet normal 3.5249581031848714e-17 1.0 -2.2741665181837887e-17
  outer loop
    vertex 11.57512886940357 3.9999999999999982 23.6
    vertex 3.999999999999999 3.9999999999999996 35.0
    vertex 11.295407686390607 3.9999999999999982 24.275306673712944
  endloop
endfacet
facet normal 3.5249581031848714e-17 1.0 -2.2741665181837887e-17
  outer loop
    vertex 11.295407686390607 3.9999999999999982 24.275306673712944
    vertex 3.999999999999999 3.9999999999999996 35.0
    vertex 11.2 3.9999999999999982 25.0
  endloop
endfacet
facet normal 3.5249581031848714e-17 1.0 -2.2741665181837887e-17
  outer loop
    vertex 11.2 3.9999999999999982 25.0
    vertex 3.999999999999999 3.9999999999999996 35.0
    vertex 11.29540768639061 3.9999999999999982 25.72469332628706
  endloop
endfacet
facet normal 3.5249581031848714e-17 1.0 -2.2741665181837887e-17
  outer loop
    vertex 11.29540768639061 3.9999999999999982 25.72469332628706
    vertex 3.999999999999999 3.9999999999999996 35.0
    vertex 11.575128869403573 3.9999999999999982 26.400000000000002
  endloop
endfacet
facet normal 3.5249581031848714e-17 1.0 -2.2741665181837887e-17
  outer loop
    vertex 11.575128869403573 3.9999999999999982 26.400000000000002
    vertex 3.999999999999999 3.9999999999999996 35.0
    vertex 12.020101012677667 3.9999999999999982 26.979898987322333
  endloop
endfacet
facet normal 3.5249581031848714e-17 1.0 -2.2741665181837887e-17
  outer loop
    vertex 12.020101012677667 3.9999999999999982 26.979898987322333
    vertex 3.999999999999999 3.9999999999999996 35.0
    vertex 12.6 3.9999999999999982 27.424871130596433
  endloop
endfacet
facet normal 3.5249581031848714e-17 1.0 -2.2741665181837887e-17
  outer loop
    vertex 12.6 3.9999999999999982 27.424871130596433
    vertex 3.999999999999999 3.9999999999999996 35.0
    vertex 13.275306673712944 3.9999999999999982 27.704592313609393
  endloop
endfacet
facet normal 3.5249581031848714e-17 1.0 -2.2741665181837887e-17
  outer loop
    vertex 13.275306673712944 3.9999999999999982 27.704592313609393
    vertex 3.999999999999999 3.9999999999999996 35.0
    vertex 14.0 3.9999999999999982 27.8
  endloop
endfacet
facet normal 3.5249581031848714e-17 1.0 -2.2741665181837887e-17
  outer loop
    vertex 24.0 3.9999999999999982 3.9999999999999996
    vertex 16.42487113059643 3.9999999999999982 23.599999999999998
    vertex 24.0 3.999999999999999 35.0
  endloop
endfacet
facet normal 3.5249581031848714e-17 1.0 -2.2741665181837887e-17
  outer loop
    vertex 16.42487113059643 3.9999999999999982 23.599999999999998
    vertex 24.0 3.9999999999999982 3.9999999999999996
    vertex 15.979898987322333 3.9999999999999982 23.020101012677667
  endloop
endfacet
facet normal 3.5249581031848714e-17 1.0 -2.2741665181837887e-17
  outer loop
    vertex 15.979898987322333 3.9999999999999982 23.020101012677667
    vertex 24.0 3.9999999999999982 3.9999999999999996
    vertex 15.4 3.9999999999999982 22.57512886940357
  endloop
endfacet
facet normal 3.5249581031848714e-17 1.0 -2.2741665181837887e-17
  outer loop
    vertex 15.4 3.9999999999999982 22.57512886940357
    vertex 24.0 3.9999999999999982 3.9999999999999996
    vertex 14.724693326287058 3.9999999999999982 22.295407686390607
  endloop
endfacet
facet normal 3.5249581031848714e-17 1.0 -2.2741665181837887e-17
  outer loop
    vertex 14.724693326287058 3.9999999999999982 22.295407686390607
    vertex 24.0 3.9999999999999982 3.9999999999999996
    vertex 14.0 3.9999999999999982 22.2
  endloop
endfacet
facet normal 3.5249581031848714e-17 1.0 -2.2741665181837887e-17
  outer loop
    vertex 24.0 3.999999999999999 35.0
    vertex 16.42487113059643 3.9999999999999982 23.599999999999998
    vertex 16.704592313609393 3.9999999999999982 24.275306673712937
  endloop
endfacet
facet normal 3.5249581031848714e-17 1.0 -2.2741665181837887e-17
  outer loop
    vertex 24.0 3.999999999999999 35.0
    vertex 16.704592313609393 3.9999999999999982 24.275306673712937
    vertex 16.8 3.9999999999999982 25.0
  endloop
endfacet
facet normal 3.5249581031848714e-17 1.0 -2.2741665181837887e-17
  outer loop
    vertex 24.0 3.999999999999999 35.0
    vertex 16.8 3.9999999999999982 25.0
    vertex 16.704592313609393 3.9999999999999982 25.724693326287056
  endloop
endfacet
facet normal 3.5249581031848714e-17 1.0 -2.2741665181837887e-17
  outer loop
    vertex 24.0 3.999999999999999 35.0
    vertex 16.704592313609393 3.9999999999999982 25.724693326287056
    vertex 16.42487113059643 3.9999999999999982 26.399999999999995
  endloop
endfacet
facet normal 3.5249581031848714e-17 1.0 -2.2741665181837887e-17
  outer loop
    vertex 24.0 3.999999999999999 35.0
    vertex 16.42487113059643 3.9999999999999982 26.399999999999995
    vertex 15.979898987322333 3.9999999999999982 26.979898987322333
  endloop
endfacet
facet normal 3.5249581031848714e-17 1.0 -2.2741665181837887e-17
  outer loop
    vertex 24.0 3.999999999999999 35.0
    vertex 15.979898987322333 3.9999999999999982 26.979898987322333
    vertex 15.4 3.9999999999999982 27.424871130596426
  endloop
endfacet
facet normal 3.5249581031848714e-17 1.0 -2.2741665181837887e-17
  outer loop
    vertex 24.0 3.999999999999999 35.0
    vertex 15.4 3.9999999999999982 27.424871130596426
    vertex 14.724693326287058 3.9999999999999982 27.70459231360939
  endloop
endfacet
facet normal 3.5249581031848714e-17 1.0 -2.2741665181837887e-17
  outer loop
    vertex 24.0 3.999999999999999 35.0
    vertex 14.724693326287058 3.9999999999999982 27.70459231360939
    vertex 14.0 3.9999999999999982 27.8
  endloop
endfacet
facet normal 3.5249581031848714e-17 1.0 -2.2741665181837887e-17
  outer loop
    vertex 24.0 3.999999999999999 35.0
    vertex 14.0 3.9999999999999982 27.8
    vertex 3.999999999999999 3.9999999999999996 35.0
  endloop
endfacet
facet normal -1.0 0.0 0.0
  outer loop
    vertex 24.0 35.0 3.9999999999999996
    vertex 24.0 3.9999999999999982 3.9999999999999996
    vertex 24.0 3.999999999999999 35.0
  endloop
endfacet
facet normal -0.0 -0.0 1.0
  outer loop
    vertex 24.0 3.9999999999999982 3.9999999999999996
    vertex 3.9999999999999996 35.0 3.9999999999999996
    vertex 3.999999999999999 3.999999999999999 3.9999999999999996
  endloop
endfacet
facet normal -0.0 -0.0 1.0
  outer loop
    vertex 3.9999999999999996 35.0 3.9999999999999996
    vertex 24.0 3.9999999999999982 3.9999999999999996
    vertex 11.57512886940357 23.599999999999998 3.9999999999999996
  endloop
endfacet
facet normal -0.0 -0.0 1.0
  outer loop
    vertex 3.9999999999999996 35.0 3.9999999999999996
    vertex 11.57512886940357 23.599999999999998 3.9999999999999996
    vertex 11.295407686390607 24.275306673712937 3.9999999999999996
  endloop
endfacet
facet normal -0.0 -0.0 1.0
  outer loop
    vertex 3.9999999999999996 35.0 3.9999999999999996
    vertex 11.295407686390607 24.275306673712937 3.9999999999999996
    vertex 11.2 25.0 3.9999999999999996
  endloop
endfacet
facet normal -0.0 -0.0 1.0
  outer loop
    vertex 11.57512886940357 23.599999999999998 3.9999999999999996
    vertex 24.0 3.9999999999999982 3.9999999999999996
    vertex 12.020101012677666 23.020101012677667 3.9999999999999996
  endloop
endfacet
facet normal -0.0 -0.0 1.0
  outer loop
    vertex 12.020101012677666 23.020101012677667 3.9999999999999996
    vertex 24.0 3.9999999999999982 3.9999999999999996
    vertex 12.6 22.57512886940357 3.9999999999999996
  endloop
endfacet
facet normal -0.0 -0.0 1.0
  outer loop
    vertex 12.6 22.57512886940357 3.9999999999999996
    vertex 24.0 3.9999999999999982 3.9999999999999996
    vertex 13.275306673712942 22.295407686390607 3.9999999999999996
  endloop
endfacet
facet normal -0.0 -0.0 1.0
  outer loop
    vertex 13.275306673712942 22.295407686390607 3.9999999999999996
    vertex 24.0 3.9999999999999982 3.9999999999999996
    vertex 14.0 22.2 3.9999999999999996
  endloop
endfacet
facet normal -0.0 -0.0 1.0
  outer loop
    vertex 14.0 22.2 3.9999999999999996
    vertex 24.0 3.9999999999999982 3.9999999999999996
    vertex 14.724693326287062 22.295407686390607 3.9999999999999996
  endloop
endfacet
facet normal -0.0 -0.0 1.0
  outer loop
    vertex 14.724693326287062 22.295407686390607 3.9999999999999996
    vertex 24.0 3.9999999999999982 3.9999999999999996
    vertex 15.4 22.57512886940357 3.9999999999999996
  endloop
endfacet
facet normal -0.0 -0.0 1.0
  outer loop
    vertex 15.4 22.57512886940357 3.9999999999999996
    vertex 24.0 3.9999999999999982 3.9999999999999996
    vertex 15.979898987322333 23.020101012677667 3.9999999999999996
  endloop
endfacet
facet normal -0.0 -0.0 1.0
  outer loop
    vertex 15.979898987322333 23.020101012677667 3.9999999999999996
    vertex 24.0 3.9999999999999982 3.9999999999999996
    vertex 16.42487113059643 23.6 3.9999999999999996
  endloop
endfacet
facet normal -0.0 -0.0 1.0
  outer loop
    vertex 16.42487113059643 23.6 3.9999999999999996
    vertex 24.0 3.9999999999999982 3.9999999999999996
    vertex 16.704592313609393 24.275306673712944 3.9999999999999996
  endloop
endfacet
facet normal -0.0 -0.0 1.0
  outer loop
    vertex 16.704592313609393 24.275306673712944 3.9999999999999996
    vertex 24.0 3.9999999999999982 3.9999999999999996
    vertex 16.8 25.0 3.9999999999999996
  endloop
endfacet
facet normal -0.0 -0.0 1.0
  outer loop
    vertex 3.9999999999999996 35.0 3.9999999999999996
    vertex 12.599999999999998 27.424871130596426 3.9999999999999996
    vertex 24.0 35.0 3.9999999999999996
  endloop
endfacet
facet normal -0.0 -0.0 1.0
  outer loop
    vertex 12.599999999999998 27.424871130596426 3.9999999999999996
    vertex 3.9999999999999996 35.0 3.9999999999999996
    vertex 12.020101012677666 26.979898987322333 3.9999999999999996
  endloop
endfacet
facet normal -0.0 -0.0 1.0
  outer loop
    vertex 12.020101012677666 26.979898987322333 3.9999999999999996
    vertex 3.9999999999999996 35.0 3.9999999999999996
    vertex 11.57512886940357 26.399999999999995 3.9999999999999996
  endloop
endfacet
facet normal -0.0 -0.0 1.0
  outer loop
    vertex 11.57512886940357 26.399999999999995 3.9999999999999996
    vertex 3.9999999999999996 35.0 3.9999999999999996
    vertex 11.295407686390607 25.724693326287056 3.9999999999999996
  endloop
endfacet
facet normal -0.0 -0.0 1.0
  outer loop
    vertex 11.295407686390607 25.724693326287056 3.9999999999999996
    vertex 3.9999999999999996 35.0 3.9999999999999996
    vertex 11.2 25.0 3.9999999999999996
  endloop
endfacet
facet normal -0.0 -0.0 1.0
  outer loop
    vertex 24.0 35.0 3.9999999999999996
    vertex 12.599999999999998 27.424871130596426 3.9999999999999996
    vertex 13.275306673712942 27.70459231360939 3.9999999999999996
  endloop
endfacet
facet normal -0.0 -0.0 1.0
  outer loop
    vertex 24.0 35.0 3.9999999999999996
    vertex 13.275306673712942 27.70459231360939 3.9999999999999996
    vertex 14.0 27.8 3.9999999999999996
  endloop
endfacet
facet normal -0.0 -0.0 1.0
  outer loop
    vertex 24.0 35.0 3.9999999999999996
    vertex 14.0 27.8 3.9999999999999996
    vertex 14.724693326287056 27.704592313609393 3.9999999999999996
  endloop
endfacet
facet normal -0.0 -0.0 1.0
  outer loop
    vertex 24.0 35.0 3.9999999999999996
    vertex 14.724693326287056 27.704592313609393 3.9999999999999996
    vertex 15.4 27.424871130596433 3.9999999999999996
  endloop
endfacet
facet normal -0.0 -0.0 1.0
  outer loop
    vertex 24.0 35.0 3.9999999999999996
    vertex 15.4 27.424871130596433 3.9999999999999996
    vertex 15.979898987322333 26.979898987322333 3.9999999999999996
  endloop
endfacet
facet normal -0.0 -0.0 1.0
  outer loop
    vertex 24.0 35.0 3.9999999999999996
    vertex 15.979898987322333 26.979898987322333 3.9999999999999996
    vertex 16.42487113059643 26.400000000000002 3.9999999999999996
  endloop
endfacet
facet normal -0.0 -0.0 1.0
  outer loop
    vertex 24.0 35.0 3.9999999999999996
    vertex 16.42487113059643 26.400000000000002 3.9999999999999996
    vertex 16.704592313609393 25.72469332628706 3.9999999999999996
  endloop
endfacet
facet normal -0.0 -0.0 1.0
  outer loop
    vertex 24.0 35.0 3.9999999999999996
    vertex 16.704592313609393 25.72469332628706 3.9999999999999996
    vertex 16.8 25.0 3.9999999999999996
  endloop
endfacet
facet normal -0.0 -0.0 1.0
  outer loop
    vertex 24.0 35.0 3.9999999999999996
    vertex 16.8 25.0 3.9999999999999996
    vertex 24.0 3.9999999999999982 3.9999999999999996
  endloop
endfacet
facet normal -0.0 0.7071067811865476 0.7071067811865476
  outer loop
    vertex 0.0 3.9999999999999996 35.0
    vertex 3.9999999999999996 35.0 3.9999999999999996
    vertex 0.0 35.0 3.9999999999999996
  endloop
endfacet
facet normal -0.0 0.7071067811865476 0.7071067811865476
  outer loop
    vertex 3.9999999999999996 35.0 3.9999999999999996
    vertex 0.0 3.9999999999999996 35.0
    vertex 3.999999999999999 3.9999999999999996 35.0
  endloop
endfacet
facet normal 1.0 -0.0 -0.0
  outer loop
    vertex 17.900000000000002 0.0 0.0
    vertex 17.900000000000002 -1.6000000000000003 19.499999999999996
    vertex 17.900000000000002 -1.6000000000000003 0.0
  endloop
endfacet
facet normal 1.0 -0.0 -0.0
  outer loop
    vertex 17.900000000000002 -1.6000000000000003 19.499999999999996
    vertex 17.900000000000002 0.0 0.0
    vertex 17.900000000000002 -3.7893299609237376e-15 19.499999999999996
  endloop
endfacet
facet normal -0.0 -0.0 1.0
  outer loop
    vertex 17.900000000000002 -1.6000000000000003 19.499999999999996
    vertex 10.1 -3.7893299609237376e-15 19.499999999999996
    vertex 10.1 -1.6000000000000003 19.499999999999996
  endloop
endfacet
facet normal -0.0 -0.0 1.0
  outer loop
    vertex 10.1 -3.7893299609237376e-15 19.499999999999996
    vertex 17.900000000000002 -1.6000000000000003 19.499999999999996
    vertex 17.900000000000002 -3.7893299609237376e-15 19.499999999999996
  endloop
endfacet
endsolid Corner Bracket 3030M5
