solid CATIA STL
  facet normal  1.000000e+000  -0.000000e+000  0.000000e+000
    outer loop
      vertex  2.000000e+000  4.500000e+000  6.500000e+000
      vertex  2.000000e+000 -4.500000e+000  6.500000e+000
      vertex  2.000000e+000 -3.133954e-001  5.831043e+000
    endloop
  endfacet
  facet normal  1.000000e+000  0.000000e+000  0.000000e+000
    outer loop
      vertex  2.000000e+000  4.500000e+000  6.500000e+000
      vertex  2.000000e+000 -3.133954e-001  5.831043e+000
      vertex  2.000000e+000  3.133954e-001  5.831043e+000
    endloop
  endfacet
  facet normal  1.000000e+000  -0.000000e+000  0.000000e+000
    outer loop
      vertex  2.000000e+000  4.500000e+000  6.500000e+000
      vertex  2.000000e+000  3.133954e-001  5.831043e+000
      vertex  2.000000e+000  9.219727e-001  5.681042e+000
    endloop
  endfacet
  facet normal  9.999999e-001  -0.000000e+000  0.000000e+000
    outer loop
      vertex  2.000000e+000  4.500000e+000  6.500000e+000
      vertex  2.000000e+000  9.219727e-001  5.681042e+000
      vertex  2.000000e+000  1.476968e+000  5.389758e+000
    endloop
  endfacet
  facet normal  1.000000e+000  -0.000000e+000  0.000000e+000
    outer loop
      vertex  2.000000e+000  4.500000e+000  6.500000e+000
      vertex  2.000000e+000  1.476968e+000  5.389758e+000
      vertex  2.000000e+000  1.946128e+000  4.974119e+000
    endloop
  endfacet
  facet normal  1.000000e+000  -0.000000e+000  0.000000e+000
    outer loop
      vertex  2.000000e+000  4.500000e+000  6.500000e+000
      vertex  2.000000e+000  1.946128e+000  4.974119e+000
      vertex  2.000000e+000  2.302186e+000  4.458280e+000
    endloop
  endfacet
  facet normal  1.000000e+000  -0.000000e+000  0.000000e+000
    outer loop
      vertex  2.000000e+000  4.500000e+000  6.500000e+000
      vertex  2.000000e+000  2.302186e+000  4.458280e+000
      vertex  2.000000e+000  2.524449e+000  3.872221e+000
    endloop
  endfacet
  facet normal  1.000000e+000  -0.000000e+000  0.000000e+000
    outer loop
      vertex  2.000000e+000  4.500000e+000  6.500000e+000
      vertex  2.000000e+000  2.524449e+000  3.872221e+000
      vertex  2.000000e+000  4.500000e+000  0.000000e+000
    endloop
  endfacet
  facet normal  1.000000e+000  0.000000e+000  0.000000e+000
    outer loop
      vertex  2.000000e+000  4.500000e+000  0.000000e+000
      vertex  2.000000e+000  2.524449e+000  3.872221e+000
      vertex  2.000000e+000  2.600000e+000  3.250000e+000
    endloop
  endfacet
  facet normal  1.000000e+000  0.000000e+000  0.000000e+000
    outer loop
      vertex  2.000000e+000  4.500000e+000  0.000000e+000
      vertex  2.000000e+000  2.600000e+000  3.250000e+000
      vertex  2.000000e+000  2.524449e+000  2.627779e+000
    endloop
  endfacet
  facet normal  1.000000e+000  0.000000e+000  0.000000e+000
    outer loop
      vertex  2.000000e+000  4.500000e+000  0.000000e+000
      vertex  2.000000e+000  2.524449e+000  2.627779e+000
      vertex  2.000000e+000  2.302186e+000  2.041720e+000
    endloop
  endfacet
  facet normal  1.000000e+000  0.000000e+000  0.000000e+000
    outer loop
      vertex  2.000000e+000  4.500000e+000  0.000000e+000
      vertex  2.000000e+000  2.302186e+000  2.041720e+000
      vertex  2.000000e+000  1.946128e+000  1.525881e+000
    endloop
  endfacet
  facet normal  1.000000e+000  0.000000e+000  0.000000e+000
    outer loop
      vertex  2.000000e+000  4.500000e+000  0.000000e+000
      vertex  2.000000e+000  1.946128e+000  1.525881e+000
      vertex  2.000000e+000  1.476968e+000  1.110242e+000
    endloop
  endfacet
  facet normal  1.000000e+000  0.000000e+000  0.000000e+000
    outer loop
      vertex  2.000000e+000  4.500000e+000  0.000000e+000
      vertex  2.000000e+000  1.476968e+000  1.110242e+000
      vertex  2.000000e+000  9.219727e-001  8.189577e-001
    endloop
  endfacet
  facet normal  1.000000e+000  0.000000e+000  0.000000e+000
    outer loop
      vertex  2.000000e+000  4.500000e+000  0.000000e+000
      vertex  2.000000e+000  9.219727e-001  8.189577e-001
      vertex  2.000000e+000  3.133954e-001  6.689569e-001
    endloop
  endfacet
  facet normal  1.000000e+000  0.000000e+000  0.000000e+000
    outer loop
      vertex  2.000000e+000  4.500000e+000  0.000000e+000
      vertex  2.000000e+000  3.133954e-001  6.689569e-001
      vertex  2.000000e+000 -3.133954e-001  6.689569e-001
    endloop
  endfacet
  facet normal  1.000000e+000  0.000000e+000  0.000000e+000
    outer loop
      vertex  2.000000e+000  4.500000e+000  0.000000e+000
      vertex  2.000000e+000 -3.133954e-001  6.689569e-001
      vertex  2.000000e+000 -4.500000e+000  0.000000e+000
    endloop
  endfacet
  facet normal  1.000000e+000  0.000000e+000  0.000000e+000
    outer loop
      vertex  2.000000e+000 -4.500000e+000  0.000000e+000
      vertex  2.000000e+000 -3.133954e-001  6.689569e-001
      vertex  2.000000e+000 -9.219727e-001  8.189577e-001
    endloop
  endfacet
  facet normal  1.000000e+000  0.000000e+000  0.000000e+000
    outer loop
      vertex  2.000000e+000 -4.500000e+000  0.000000e+000
      vertex  2.000000e+000 -9.219727e-001  8.189577e-001
      vertex  2.000000e+000 -1.476968e+000  1.110242e+000
    endloop
  endfacet
  facet normal  1.000000e+000  0.000000e+000  0.000000e+000
    outer loop
      vertex  2.000000e+000 -4.500000e+000  0.000000e+000
      vertex  2.000000e+000 -1.476968e+000  1.110242e+000
      vertex  2.000000e+000 -1.946128e+000  1.525881e+000
    endloop
  endfacet
  facet normal  1.000000e+000  0.000000e+000  0.000000e+000
    outer loop
      vertex  2.000000e+000 -4.500000e+000  0.000000e+000
      vertex  2.000000e+000 -1.946128e+000  1.525881e+000
      vertex  2.000000e+000 -2.302186e+000  2.041720e+000
    endloop
  endfacet
  facet normal  1.000000e+000  0.000000e+000  0.000000e+000
    outer loop
      vertex  2.000000e+000 -4.500000e+000  0.000000e+000
      vertex  2.000000e+000 -2.302186e+000  2.041720e+000
      vertex  2.000000e+000 -2.524449e+000  2.627779e+000
    endloop
  endfacet
  facet normal  1.000000e+000  0.000000e+000  0.000000e+000
    outer loop
      vertex  2.000000e+000 -4.500000e+000  0.000000e+000
      vertex  2.000000e+000 -2.524449e+000  2.627779e+000
      vertex  2.000000e+000 -2.600000e+000  3.250000e+000
    endloop
  endfacet
  facet normal  1.000000e+000  0.000000e+000  0.000000e+000
    outer loop
      vertex  2.000000e+000 -4.500000e+000  0.000000e+000
      vertex  2.000000e+000 -2.600000e+000  3.250000e+000
      vertex  2.000000e+000 -4.500000e+000  6.500000e+000
    endloop
  endfacet
  facet normal  1.000000e+000  0.000000e+000  -0.000000e+000
    outer loop
      vertex  2.000000e+000 -4.500000e+000  6.500000e+000
      vertex  2.000000e+000 -2.600000e+000  3.250000e+000
      vertex  2.000000e+000 -2.524449e+000  3.872221e+000
    endloop
  endfacet
  facet normal  1.000000e+000  0.000000e+000  -0.000000e+000
    outer loop
      vertex  2.000000e+000 -4.500000e+000  6.500000e+000
      vertex  2.000000e+000 -2.524449e+000  3.872221e+000
      vertex  2.000000e+000 -2.302186e+000  4.458280e+000
    endloop
  endfacet
  facet normal  1.000000e+000  0.000000e+000  -0.000000e+000
    outer loop
      vertex  2.000000e+000 -4.500000e+000  6.500000e+000
      vertex  2.000000e+000 -2.302186e+000  4.458280e+000
      vertex  2.000000e+000 -1.946128e+000  4.974119e+000
    endloop
  endfacet
  facet normal  1.000000e+000  0.000000e+000  -0.000000e+000
    outer loop
      vertex  2.000000e+000 -4.500000e+000  6.500000e+000
      vertex  2.000000e+000 -1.946128e+000  4.974119e+000
      vertex  2.000000e+000 -1.476968e+000  5.389758e+000
    endloop
  endfacet
  facet normal  9.999999e-001  0.000000e+000  -0.000000e+000
    outer loop
      vertex  2.000000e+000 -4.500000e+000  6.500000e+000
      vertex  2.000000e+000 -1.476968e+000  5.389758e+000
      vertex  2.000000e+000 -9.219727e-001  5.681042e+000
    endloop
  endfacet
  facet normal  1.000000e+000  0.000000e+000  -0.000000e+000
    outer loop
      vertex  2.000000e+000 -4.500000e+000  6.500000e+000
      vertex  2.000000e+000 -9.219727e-001  5.681042e+000
      vertex  2.000000e+000 -3.133954e-001  5.831043e+000
    endloop
  endfacet
  facet normal  0.000000e+000 -2.393156e-001  9.709418e-001
    outer loop
      vertex -1.000000e+000  3.133954e-001  6.689569e-001
      vertex  2.000000e+000  9.219727e-001  8.189577e-001
      vertex -1.000000e+000  9.219727e-001  8.189577e-001
    endloop
  endfacet
  facet normal  0.000000e+000 -4.647231e-001  8.854560e-001
    outer loop
      vertex -1.000000e+000  9.219727e-001  8.189577e-001
      vertex  2.000000e+000  9.219727e-001  8.189577e-001
      vertex  2.000000e+000  1.476968e+000  1.110242e+000
    endloop
  endfacet
  facet normal  0.000000e+000 -4.647231e-001  8.854560e-001
    outer loop
      vertex -1.000000e+000  9.219727e-001  8.189577e-001
      vertex  2.000000e+000  1.476968e+000  1.110242e+000
      vertex -1.000000e+000  1.476968e+000  1.110242e+000
    endloop
  endfacet
  facet normal  0.000000e+000 -6.631227e-001  7.485107e-001
    outer loop
      vertex -1.000000e+000  1.476968e+000  1.110242e+000
      vertex  2.000000e+000  1.476968e+000  1.110242e+000
      vertex  2.000000e+000  1.946128e+000  1.525881e+000
    endloop
  endfacet
  facet normal  0.000000e+000 -6.631227e-001  7.485107e-001
    outer loop
      vertex -1.000000e+000  1.476968e+000  1.110242e+000
      vertex  2.000000e+000  1.946128e+000  1.525881e+000
      vertex -1.000000e+000  1.946128e+000  1.525881e+000
    endloop
  endfacet
  facet normal  0.000000e+000 -8.229837e-001  5.680650e-001
    outer loop
      vertex -1.000000e+000  1.946128e+000  1.525881e+000
      vertex  2.000000e+000  1.946128e+000  1.525881e+000
      vertex  2.000000e+000  2.302186e+000  2.041720e+000
    endloop
  endfacet
  facet normal  0.000000e+000 -8.229837e-001  5.680650e-001
    outer loop
      vertex -1.000000e+000  1.946128e+000  1.525881e+000
      vertex  2.000000e+000  2.302186e+000  2.041720e+000
      vertex -1.000000e+000  2.302186e+000  2.041720e+000
    endloop
  endfacet
  facet normal  0.000000e+000 -9.350164e-001  3.546046e-001
    outer loop
      vertex -1.000000e+000  2.302186e+000  2.041720e+000
      vertex  2.000000e+000  2.302186e+000  2.041720e+000
      vertex  2.000000e+000  2.524449e+000  2.627779e+000
    endloop
  endfacet
  facet normal  0.000000e+000 -9.350164e-001  3.546046e-001
    outer loop
      vertex -1.000000e+000  2.302186e+000  2.041720e+000
      vertex  2.000000e+000  2.524449e+000  2.627779e+000
      vertex -1.000000e+000  2.524449e+000  2.627779e+000
    endloop
  endfacet
  facet normal  0.000000e+000 -9.927089e-001  1.205367e-001
    outer loop
      vertex -1.000000e+000  2.524449e+000  2.627779e+000
      vertex  2.000000e+000  2.524449e+000  2.627779e+000
      vertex  2.000000e+000  2.600000e+000  3.250000e+000
    endloop
  endfacet
  facet normal  0.000000e+000 -9.927089e-001  1.205367e-001
    outer loop
      vertex -1.000000e+000  2.524449e+000  2.627779e+000
      vertex  2.000000e+000  2.600000e+000  3.250000e+000
      vertex -1.000000e+000  2.600000e+000  3.250000e+000
    endloop
  endfacet
  facet normal  0.000000e+000 -2.393156e-001  9.709418e-001
    outer loop
      vertex  2.000000e+000  9.219727e-001  8.189577e-001
      vertex -1.000000e+000  3.133954e-001  6.689569e-001
      vertex  2.000000e+000  3.133954e-001  6.689569e-001
    endloop
  endfacet
  facet normal  0.000000e+000  0.000000e+000  1.000000e+000
    outer loop
      vertex  2.000000e+000  3.133954e-001  6.689569e-001
      vertex -1.000000e+000  3.133954e-001  6.689569e-001
      vertex -1.000000e+000 -3.133954e-001  6.689569e-001
    endloop
  endfacet
  facet normal  0.000000e+000  0.000000e+000  1.000000e+000
    outer loop
      vertex  2.000000e+000  3.133954e-001  6.689569e-001
      vertex -1.000000e+000 -3.133954e-001  6.689569e-001
      vertex  2.000000e+000 -3.133954e-001  6.689569e-001
    endloop
  endfacet
  facet normal  0.000000e+000  2.393156e-001  9.709418e-001
    outer loop
      vertex  2.000000e+000 -3.133954e-001  6.689569e-001
      vertex -1.000000e+000 -3.133954e-001  6.689569e-001
      vertex -1.000000e+000 -9.219727e-001  8.189577e-001
    endloop
  endfacet
  facet normal  -0.000000e+000  2.393156e-001  9.709418e-001
    outer loop
      vertex  2.000000e+000 -3.133954e-001  6.689569e-001
      vertex -1.000000e+000 -9.219727e-001  8.189577e-001
      vertex  2.000000e+000 -9.219727e-001  8.189577e-001
    endloop
  endfacet
  facet normal  0.000000e+000  4.647231e-001  8.854560e-001
    outer loop
      vertex  2.000000e+000 -9.219727e-001  8.189577e-001
      vertex -1.000000e+000 -9.219727e-001  8.189577e-001
      vertex -1.000000e+000 -1.476968e+000  1.110242e+000
    endloop
  endfacet
  facet normal  -0.000000e+000  4.647231e-001  8.854560e-001
    outer loop
      vertex  2.000000e+000 -9.219727e-001  8.189577e-001
      vertex -1.000000e+000 -1.476968e+000  1.110242e+000
      vertex  2.000000e+000 -1.476968e+000  1.110242e+000
    endloop
  endfacet
  facet normal  0.000000e+000  6.631227e-001  7.485107e-001
    outer loop
      vertex  2.000000e+000 -1.476968e+000  1.110242e+000
      vertex -1.000000e+000 -1.476968e+000  1.110242e+000
      vertex -1.000000e+000 -1.946128e+000  1.525881e+000
    endloop
  endfacet
  facet normal  -0.000000e+000  6.631227e-001  7.485107e-001
    outer loop
      vertex  2.000000e+000 -1.476968e+000  1.110242e+000
      vertex -1.000000e+000 -1.946128e+000  1.525881e+000
      vertex  2.000000e+000 -1.946128e+000  1.525881e+000
    endloop
  endfacet
  facet normal  0.000000e+000  8.229837e-001  5.680650e-001
    outer loop
      vertex  2.000000e+000 -1.946128e+000  1.525881e+000
      vertex -1.000000e+000 -1.946128e+000  1.525881e+000
      vertex -1.000000e+000 -2.302186e+000  2.041720e+000
    endloop
  endfacet
  facet normal  -0.000000e+000  8.229837e-001  5.680650e-001
    outer loop
      vertex  2.000000e+000 -1.946128e+000  1.525881e+000
      vertex -1.000000e+000 -2.302186e+000  2.041720e+000
      vertex  2.000000e+000 -2.302186e+000  2.041720e+000
    endloop
  endfacet
  facet normal  0.000000e+000  9.350164e-001  3.546046e-001
    outer loop
      vertex  2.000000e+000 -2.302186e+000  2.041720e+000
      vertex -1.000000e+000 -2.302186e+000  2.041720e+000
      vertex -1.000000e+000 -2.524449e+000  2.627779e+000
    endloop
  endfacet
  facet normal  -0.000000e+000  9.350164e-001  3.546046e-001
    outer loop
      vertex  2.000000e+000 -2.302186e+000  2.041720e+000
      vertex -1.000000e+000 -2.524449e+000  2.627779e+000
      vertex  2.000000e+000 -2.524449e+000  2.627779e+000
    endloop
  endfacet
  facet normal  0.000000e+000  9.927089e-001  1.205367e-001
    outer loop
      vertex  2.000000e+000 -2.524449e+000  2.627779e+000
      vertex -1.000000e+000 -2.524449e+000  2.627779e+000
      vertex -1.000000e+000 -2.600000e+000  3.250000e+000
    endloop
  endfacet
  facet normal  -0.000000e+000  9.927089e-001  1.205367e-001
    outer loop
      vertex  2.000000e+000 -2.524449e+000  2.627779e+000
      vertex -1.000000e+000 -2.600000e+000  3.250000e+000
      vertex  2.000000e+000 -2.600000e+000  3.250000e+000
    endloop
  endfacet
  facet normal  0.000000e+000  2.393160e-001 -9.709417e-001
    outer loop
      vertex -1.000000e+000 -3.133954e-001  5.831043e+000
      vertex  2.000000e+000 -9.219727e-001  5.681042e+000
      vertex -1.000000e+000 -9.219727e-001  5.681042e+000
    endloop
  endfacet
  facet normal  0.000000e+000  4.647231e-001 -8.854560e-001
    outer loop
      vertex -1.000000e+000 -9.219727e-001  5.681042e+000
      vertex  2.000000e+000 -9.219727e-001  5.681042e+000
      vertex  2.000000e+000 -1.476968e+000  5.389758e+000
    endloop
  endfacet
  facet normal  0.000000e+000  4.647231e-001 -8.854560e-001
    outer loop
      vertex -1.000000e+000 -9.219727e-001  5.681042e+000
      vertex  2.000000e+000 -1.476968e+000  5.389758e+000
      vertex -1.000000e+000 -1.476968e+000  5.389758e+000
    endloop
  endfacet
  facet normal  0.000000e+000  6.631229e-001 -7.485105e-001
    outer loop
      vertex -1.000000e+000 -1.476968e+000  5.389758e+000
      vertex  2.000000e+000 -1.476968e+000  5.389758e+000
      vertex  2.000000e+000 -1.946128e+000  4.974119e+000
    endloop
  endfacet
  facet normal  0.000000e+000  6.631229e-001 -7.485105e-001
    outer loop
      vertex -1.000000e+000 -1.476968e+000  5.389758e+000
      vertex  2.000000e+000 -1.946128e+000  4.974119e+000
      vertex -1.000000e+000 -1.946128e+000  4.974119e+000
    endloop
  endfacet
  facet normal  0.000000e+000  8.229837e-001 -5.680650e-001
    outer loop
      vertex -1.000000e+000 -1.946128e+000  4.974119e+000
      vertex  2.000000e+000 -1.946128e+000  4.974119e+000
      vertex  2.000000e+000 -2.302186e+000  4.458280e+000
    endloop
  endfacet
  facet normal  0.000000e+000  8.229837e-001 -5.680650e-001
    outer loop
      vertex -1.000000e+000 -1.946128e+000  4.974119e+000
      vertex  2.000000e+000 -2.302186e+000  4.458280e+000
      vertex -1.000000e+000 -2.302186e+000  4.458280e+000
    endloop
  endfacet
  facet normal  0.000000e+000  9.350163e-001 -3.546047e-001
    outer loop
      vertex -1.000000e+000 -2.302186e+000  4.458280e+000
      vertex  2.000000e+000 -2.302186e+000  4.458280e+000
      vertex  2.000000e+000 -2.524449e+000  3.872221e+000
    endloop
  endfacet
  facet normal  0.000000e+000  9.350163e-001 -3.546047e-001
    outer loop
      vertex -1.000000e+000 -2.302186e+000  4.458280e+000
      vertex  2.000000e+000 -2.524449e+000  3.872221e+000
      vertex -1.000000e+000 -2.524449e+000  3.872221e+000
    endloop
  endfacet
  facet normal  0.000000e+000  9.927089e-001 -1.205367e-001
    outer loop
      vertex -1.000000e+000 -2.524449e+000  3.872221e+000
      vertex  2.000000e+000 -2.524449e+000  3.872221e+000
      vertex  2.000000e+000 -2.600000e+000  3.250000e+000
    endloop
  endfacet
  facet normal  0.000000e+000  9.927089e-001 -1.205367e-001
    outer loop
      vertex -1.000000e+000 -2.524449e+000  3.872221e+000
      vertex  2.000000e+000 -2.600000e+000  3.250000e+000
      vertex -1.000000e+000 -2.600000e+000  3.250000e+000
    endloop
  endfacet
  facet normal  0.000000e+000  2.393160e-001 -9.709417e-001
    outer loop
      vertex  2.000000e+000 -9.219727e-001  5.681042e+000
      vertex -1.000000e+000 -3.133954e-001  5.831043e+000
      vertex  2.000000e+000 -3.133954e-001  5.831043e+000
    endloop
  endfacet
  facet normal  0.000000e+000  0.000000e+000 -1.000000e+000
    outer loop
      vertex  2.000000e+000 -3.133954e-001  5.831043e+000
      vertex -1.000000e+000 -3.133954e-001  5.831043e+000
      vertex -1.000000e+000  3.133954e-001  5.831043e+000
    endloop
  endfacet
  facet normal  0.000000e+000  0.000000e+000 -1.000000e+000
    outer loop
      vertex  2.000000e+000 -3.133954e-001  5.831043e+000
      vertex -1.000000e+000  3.133954e-001  5.831043e+000
      vertex  2.000000e+000  3.133954e-001  5.831043e+000
    endloop
  endfacet
  facet normal  -0.000000e+000 -2.393160e-001 -9.709417e-001
    outer loop
      vertex  2.000000e+000  3.133954e-001  5.831043e+000
      vertex -1.000000e+000  3.133954e-001  5.831043e+000
      vertex -1.000000e+000  9.219727e-001  5.681042e+000
    endloop
  endfacet
  facet normal  0.000000e+000 -2.393160e-001 -9.709417e-001
    outer loop
      vertex  2.000000e+000  3.133954e-001  5.831043e+000
      vertex -1.000000e+000  9.219727e-001  5.681042e+000
      vertex  2.000000e+000  9.219727e-001  5.681042e+000
    endloop
  endfacet
  facet normal  -0.000000e+000 -4.647231e-001 -8.854560e-001
    outer loop
      vertex  2.000000e+000  9.219727e-001  5.681042e+000
      vertex -1.000000e+000  9.219727e-001  5.681042e+000
      vertex -1.000000e+000  1.476968e+000  5.389758e+000
    endloop
  endfacet
  facet normal  0.000000e+000 -4.647231e-001 -8.854560e-001
    outer loop
      vertex  2.000000e+000  9.219727e-001  5.681042e+000
      vertex -1.000000e+000  1.476968e+000  5.389758e+000
      vertex  2.000000e+000  1.476968e+000  5.389758e+000
    endloop
  endfacet
  facet normal  -0.000000e+000 -6.631229e-001 -7.485105e-001
    outer loop
      vertex  2.000000e+000  1.476968e+000  5.389758e+000
      vertex -1.000000e+000  1.476968e+000  5.389758e+000
      vertex -1.000000e+000  1.946128e+000  4.974119e+000
    endloop
  endfacet
  facet normal  0.000000e+000 -6.631229e-001 -7.485105e-001
    outer loop
      vertex  2.000000e+000  1.476968e+000  5.389758e+000
      vertex -1.000000e+000  1.946128e+000  4.974119e+000
      vertex  2.000000e+000  1.946128e+000  4.974119e+000
    endloop
  endfacet
  facet normal  -0.000000e+000 -8.229837e-001 -5.680650e-001
    outer loop
      vertex  2.000000e+000  1.946128e+000  4.974119e+000
      vertex -1.000000e+000  1.946128e+000  4.974119e+000
      vertex -1.000000e+000  2.302186e+000  4.458280e+000
    endloop
  endfacet
  facet normal  0.000000e+000 -8.229837e-001 -5.680650e-001
    outer loop
      vertex  2.000000e+000  1.946128e+000  4.974119e+000
      vertex -1.000000e+000  2.302186e+000  4.458280e+000
      vertex  2.000000e+000  2.302186e+000  4.458280e+000
    endloop
  endfacet
  facet normal  -0.000000e+000 -9.350163e-001 -3.546047e-001
    outer loop
      vertex  2.000000e+000  2.302186e+000  4.458280e+000
      vertex -1.000000e+000  2.302186e+000  4.458280e+000
      vertex -1.000000e+000  2.524449e+000  3.872221e+000
    endloop
  endfacet
  facet normal  0.000000e+000 -9.350163e-001 -3.546047e-001
    outer loop
      vertex  2.000000e+000  2.302186e+000  4.458280e+000
      vertex -1.000000e+000  2.524449e+000  3.872221e+000
      vertex  2.000000e+000  2.524449e+000  3.872221e+000
    endloop
  endfacet
  facet normal  -0.000000e+000 -9.927089e-001 -1.205367e-001
    outer loop
      vertex  2.000000e+000  2.524449e+000  3.872221e+000
      vertex -1.000000e+000  2.524449e+000  3.872221e+000
      vertex -1.000000e+000  2.600000e+000  3.250000e+000
    endloop
  endfacet
  facet normal  0.000000e+000 -9.927089e-001 -1.205367e-001
    outer loop
      vertex  2.000000e+000  2.524449e+000  3.872221e+000
      vertex -1.000000e+000  2.600000e+000  3.250000e+000
      vertex  2.000000e+000  2.600000e+000  3.250000e+000
    endloop
  endfacet
  facet normal  9.999999e-001  -0.000000e+000  0.000000e+000
    outer loop
      vertex -1.000000e+000  3.133954e-001  5.831043e+000
      vertex -1.000000e+000 -3.133954e-001  5.831043e+000
      vertex -1.000000e+000  9.219727e-001  5.681042e+000
    endloop
  endfacet
  facet normal  1.000000e+000  0.000000e+000  0.000000e+000
    outer loop
      vertex -1.000000e+000  9.219727e-001  5.681042e+000
      vertex -1.000000e+000 -3.133954e-001  5.831043e+000
      vertex -1.000000e+000 -9.219727e-001  5.681042e+000
    endloop
  endfacet
  facet normal  1.000000e+000  -0.000000e+000  0.000000e+000
    outer loop
      vertex -1.000000e+000  9.219727e-001  5.681042e+000
      vertex -1.000000e+000 -9.219727e-001  5.681042e+000
      vertex -1.000000e+000  1.476968e+000  5.389758e+000
    endloop
  endfacet
  facet normal  9.999999e-001  0.000000e+000  0.000000e+000
    outer loop
      vertex -1.000000e+000  1.476968e+000  5.389758e+000
      vertex -1.000000e+000 -9.219727e-001  5.681042e+000
      vertex -1.000000e+000 -1.476968e+000  5.389758e+000
    endloop
  endfacet
  facet normal  1.000000e+000  -0.000000e+000  0.000000e+000
    outer loop
      vertex -1.000000e+000  1.476968e+000  5.389758e+000
      vertex -1.000000e+000 -1.476968e+000  5.389758e+000
      vertex -1.000000e+000  1.946128e+000  4.974119e+000
    endloop
  endfacet
  facet normal  1.000000e+000  0.000000e+000  0.000000e+000
    outer loop
      vertex -1.000000e+000  1.946128e+000  4.974119e+000
      vertex -1.000000e+000 -1.476968e+000  5.389758e+000
      vertex -1.000000e+000 -1.946128e+000  4.974119e+000
    endloop
  endfacet
  facet normal  1.000000e+000  -0.000000e+000  0.000000e+000
    outer loop
      vertex -1.000000e+000  1.946128e+000  4.974119e+000
      vertex -1.000000e+000 -1.946128e+000  4.974119e+000
      vertex -1.000000e+000  2.302186e+000  4.458280e+000
    endloop
  endfacet
  facet normal  1.000000e+000  0.000000e+000  0.000000e+000
    outer loop
      vertex -1.000000e+000  2.302186e+000  4.458280e+000
      vertex -1.000000e+000 -1.946128e+000  4.974119e+000
      vertex -1.000000e+000 -2.302186e+000  4.458280e+000
    endloop
  endfacet
  facet normal  1.000000e+000  -0.000000e+000  0.000000e+000
    outer loop
      vertex -1.000000e+000  2.302186e+000  4.458280e+000
      vertex -1.000000e+000 -2.302186e+000  4.458280e+000
      vertex -1.000000e+000  2.524449e+000  3.872221e+000
    endloop
  endfacet
  facet normal  9.999999e-001  0.000000e+000  0.000000e+000
    outer loop
      vertex -1.000000e+000  2.524449e+000  3.872221e+000
      vertex -1.000000e+000 -2.302186e+000  4.458280e+000
      vertex -1.000000e+000 -2.524449e+000  3.872221e+000
    endloop
  endfacet
  facet normal  1.000000e+000  -0.000000e+000  0.000000e+000
    outer loop
      vertex -1.000000e+000  2.524449e+000  3.872221e+000
      vertex -1.000000e+000 -2.524449e+000  3.872221e+000
      vertex -1.000000e+000  2.600000e+000  3.250000e+000
    endloop
  endfacet
  facet normal  1.000000e+000  0.000000e+000  0.000000e+000
    outer loop
      vertex -1.000000e+000  2.600000e+000  3.250000e+000
      vertex -1.000000e+000 -2.524449e+000  3.872221e+000
      vertex -1.000000e+000 -2.600000e+000  3.250000e+000
    endloop
  endfacet
  facet normal  1.000000e+000  -0.000000e+000  0.000000e+000
    outer loop
      vertex -1.000000e+000  2.600000e+000  3.250000e+000
      vertex -1.000000e+000 -2.600000e+000  3.250000e+000
      vertex -1.000000e+000  2.524449e+000  2.627779e+000
    endloop
  endfacet
  facet normal  1.000000e+000  0.000000e+000  0.000000e+000
    outer loop
      vertex -1.000000e+000  2.524449e+000  2.627779e+000
      vertex -1.000000e+000 -2.600000e+000  3.250000e+000
      vertex -1.000000e+000 -2.524449e+000  2.627779e+000
    endloop
  endfacet
  facet normal  1.000000e+000  -0.000000e+000  0.000000e+000
    outer loop
      vertex -1.000000e+000  2.524449e+000  2.627779e+000
      vertex -1.000000e+000 -2.524449e+000  2.627779e+000
      vertex -1.000000e+000  2.302186e+000  2.041720e+000
    endloop
  endfacet
  facet normal  1.000000e+000  0.000000e+000  0.000000e+000
    outer loop
      vertex -1.000000e+000  2.302186e+000  2.041720e+000
      vertex -1.000000e+000 -2.524449e+000  2.627779e+000
      vertex -1.000000e+000 -2.302186e+000  2.041720e+000
    endloop
  endfacet
  facet normal  1.000000e+000  -0.000000e+000  0.000000e+000
    outer loop
      vertex -1.000000e+000  2.302186e+000  2.041720e+000
      vertex -1.000000e+000 -2.302186e+000  2.041720e+000
      vertex -1.000000e+000  1.946128e+000  1.525881e+000
    endloop
  endfacet
  facet normal  1.000000e+000  0.000000e+000  0.000000e+000
    outer loop
      vertex -1.000000e+000  1.946128e+000  1.525881e+000
      vertex -1.000000e+000 -2.302186e+000  2.041720e+000
      vertex -1.000000e+000 -1.946128e+000  1.525881e+000
    endloop
  endfacet
  facet normal  1.000000e+000  -0.000000e+000  0.000000e+000
    outer loop
      vertex -1.000000e+000  1.946128e+000  1.525881e+000
      vertex -1.000000e+000 -1.946128e+000  1.525881e+000
      vertex -1.000000e+000  1.476968e+000  1.110242e+000
    endloop
  endfacet
  facet normal  1.000000e+000  0.000000e+000  0.000000e+000
    outer loop
      vertex -1.000000e+000  1.476968e+000  1.110242e+000
      vertex -1.000000e+000 -1.946128e+000  1.525881e+000
      vertex -1.000000e+000 -1.476968e+000  1.110242e+000
    endloop
  endfacet
  facet normal  1.000000e+000  -0.000000e+000  0.000000e+000
    outer loop
      vertex -1.000000e+000  1.476968e+000  1.110242e+000
      vertex -1.000000e+000 -1.476968e+000  1.110242e+000
      vertex -1.000000e+000  9.219727e-001  8.189577e-001
    endloop
  endfacet
  facet normal  1.000000e+000  0.000000e+000  0.000000e+000
    outer loop
      vertex -1.000000e+000  9.219727e-001  8.189577e-001
      vertex -1.000000e+000 -1.476968e+000  1.110242e+000
      vertex -1.000000e+000 -9.219727e-001  8.189577e-001
    endloop
  endfacet
  facet normal  1.000000e+000  -0.000000e+000  0.000000e+000
    outer loop
      vertex -1.000000e+000  9.219727e-001  8.189577e-001
      vertex -1.000000e+000 -9.219727e-001  8.189577e-001
      vertex -1.000000e+000  3.133954e-001  6.689569e-001
    endloop
  endfacet
  facet normal  1.000000e+000  0.000000e+000  0.000000e+000
    outer loop
      vertex -1.000000e+000  3.133954e-001  6.689569e-001
      vertex -1.000000e+000 -9.219727e-001  8.189577e-001
      vertex -1.000000e+000 -3.133954e-001  6.689569e-001
    endloop
  endfacet
  facet normal  -0.000000e+000  0.000000e+000  9.999999e-001
    outer loop
      vertex -4.480804e+000  4.152076e-001  6.500000e+000
      vertex -4.480804e+000 -4.152076e-001  6.500000e+000
      vertex  2.000000e+000 -4.500000e+000  6.500000e+000
    endloop
  endfacet
  facet normal  0.000000e+000  -0.000000e+000  9.999999e-001
    outer loop
      vertex -4.480804e+000  4.152076e-001  6.500000e+000
      vertex  2.000000e+000 -4.500000e+000  6.500000e+000
      vertex  2.000000e+000  4.500000e+000  6.500000e+000
    endloop
  endfacet
  facet normal  0.000000e+000  0.000000e+000  1.000000e+000
    outer loop
      vertex -4.480804e+000  4.152076e-001  6.500000e+000
      vertex  2.000000e+000  4.500000e+000  6.500000e+000
      vertex  0.000000e+000  4.500000e+000  6.500000e+000
    endloop
  endfacet
  facet normal  0.000000e+000  0.000000e+000  1.000000e+000
    outer loop
      vertex -4.480804e+000  4.152076e-001  6.500000e+000
      vertex  0.000000e+000  4.500000e+000  6.500000e+000
      vertex -8.268728e-001  4.423379e+000  6.500000e+000
    endloop
  endfacet
  facet normal  0.000000e+000  0.000000e+000  1.000000e+000
    outer loop
      vertex -4.480804e+000  4.152076e-001  6.500000e+000
      vertex -8.268728e-001  4.423379e+000  6.500000e+000
      vertex -1.625587e+000  4.196125e+000  6.500000e+000
    endloop
  endfacet
  facet normal  0.000000e+000  0.000000e+000  1.000000e+000
    outer loop
      vertex -4.480804e+000  4.152076e-001  6.500000e+000
      vertex -1.625587e+000  4.196125e+000  6.500000e+000
      vertex -2.368945e+000  3.825977e+000  6.500000e+000
    endloop
  endfacet
  facet normal  0.000000e+000  0.000000e+000  9.999999e-001
    outer loop
      vertex -4.480804e+000  4.152076e-001  6.500000e+000
      vertex -2.368945e+000  3.825977e+000  6.500000e+000
      vertex -3.031630e+000  3.325540e+000  6.500000e+000
    endloop
  endfacet
  facet normal  0.000000e+000  0.000000e+000  9.999999e-001
    outer loop
      vertex -4.480804e+000  4.152076e-001  6.500000e+000
      vertex -3.031630e+000  3.325540e+000  6.500000e+000
      vertex -3.591078e+000  2.711856e+000  6.500000e+000
    endloop
  endfacet
  facet normal  0.000000e+000  0.000000e+000  1.000000e+000
    outer loop
      vertex -4.480804e+000  4.152076e-001  6.500000e+000
      vertex -3.591078e+000  2.711856e+000  6.500000e+000
      vertex -4.028235e+000  2.005823e+000  6.500000e+000
    endloop
  endfacet
  facet normal  0.000000e+000  0.000000e+000  1.000000e+000
    outer loop
      vertex -4.480804e+000  4.152076e-001  6.500000e+000
      vertex -4.028235e+000  2.005823e+000  6.500000e+000
      vertex -4.328216e+000  1.231483e+000  6.500000e+000
    endloop
  endfacet
  facet normal  0.000000e+000  0.000000e+000  9.999999e-001
    outer loop
      vertex  2.000000e+000 -4.500000e+000  6.500000e+000
      vertex -4.480804e+000 -4.152076e-001  6.500000e+000
      vertex -4.328216e+000 -1.231483e+000  6.500000e+000
    endloop
  endfacet
  facet normal  0.000000e+000  0.000000e+000  1.000000e+000
    outer loop
      vertex  2.000000e+000 -4.500000e+000  6.500000e+000
      vertex -4.328216e+000 -1.231483e+000  6.500000e+000
      vertex -4.028235e+000 -2.005823e+000  6.500000e+000
    endloop
  endfacet
  facet normal  0.000000e+000  0.000000e+000  1.000000e+000
    outer loop
      vertex  2.000000e+000 -4.500000e+000  6.500000e+000
      vertex -4.028235e+000 -2.005823e+000  6.500000e+000
      vertex -3.591078e+000 -2.711856e+000  6.500000e+000
    endloop
  endfacet
  facet normal  0.000000e+000  0.000000e+000  1.000000e+000
    outer loop
      vertex  2.000000e+000 -4.500000e+000  6.500000e+000
      vertex -3.591078e+000 -2.711856e+000  6.500000e+000
      vertex -3.031630e+000 -3.325540e+000  6.500000e+000
    endloop
  endfacet
  facet normal  0.000000e+000  0.000000e+000  1.000000e+000
    outer loop
      vertex  2.000000e+000 -4.500000e+000  6.500000e+000
      vertex -3.031630e+000 -3.325540e+000  6.500000e+000
      vertex -2.368945e+000 -3.825977e+000  6.500000e+000
    endloop
  endfacet
  facet normal  0.000000e+000  0.000000e+000  1.000000e+000
    outer loop
      vertex  2.000000e+000 -4.500000e+000  6.500000e+000
      vertex -2.368945e+000 -3.825977e+000  6.500000e+000
      vertex -1.625587e+000 -4.196125e+000  6.500000e+000
    endloop
  endfacet
  facet normal  0.000000e+000  0.000000e+000  1.000000e+000
    outer loop
      vertex  2.000000e+000 -4.500000e+000  6.500000e+000
      vertex -1.625587e+000 -4.196125e+000  6.500000e+000
      vertex -8.268728e-001 -4.423379e+000  6.500000e+000
    endloop
  endfacet
  facet normal  0.000000e+000  0.000000e+000  1.000000e+000
    outer loop
      vertex  2.000000e+000 -4.500000e+000  6.500000e+000
      vertex -8.268728e-001 -4.423379e+000  6.500000e+000
      vertex  0.000000e+000 -4.500000e+000  6.500000e+000
    endloop
  endfacet
  facet normal  0.000000e+000  -0.000000e+000 -1.000000e+000
    outer loop
      vertex -4.480804e+000  4.152076e-001  0.000000e+000
      vertex -4.328216e+000  1.231483e+000  0.000000e+000
      vertex -4.028235e+000  2.005823e+000  0.000000e+000
    endloop
  endfacet
  facet normal  0.000000e+000  -0.000000e+000 -1.000000e+000
    outer loop
      vertex -4.480804e+000  4.152076e-001  0.000000e+000
      vertex -4.028235e+000  2.005823e+000  0.000000e+000
      vertex -3.591078e+000  2.711856e+000  0.000000e+000
    endloop
  endfacet
  facet normal  0.000000e+000  -0.000000e+000 -9.999999e-001
    outer loop
      vertex -4.480804e+000  4.152076e-001  0.000000e+000
      vertex -3.591078e+000  2.711856e+000  0.000000e+000
      vertex -3.031630e+000  3.325540e+000  0.000000e+000
    endloop
  endfacet
  facet normal  0.000000e+000  -0.000000e+000 -9.999999e-001
    outer loop
      vertex -4.480804e+000  4.152076e-001  0.000000e+000
      vertex -3.031630e+000  3.325540e+000  0.000000e+000
      vertex -2.368945e+000  3.825977e+000  0.000000e+000
    endloop
  endfacet
  facet normal  0.000000e+000  -0.000000e+000 -1.000000e+000
    outer loop
      vertex -4.480804e+000  4.152076e-001  0.000000e+000
      vertex -2.368945e+000  3.825977e+000  0.000000e+000
      vertex -1.625587e+000  4.196125e+000  0.000000e+000
    endloop
  endfacet
  facet normal  0.000000e+000  -0.000000e+000 -1.000000e+000
    outer loop
      vertex -4.480804e+000  4.152076e-001  0.000000e+000
      vertex -1.625587e+000  4.196125e+000  0.000000e+000
      vertex -8.268728e-001  4.423379e+000  0.000000e+000
    endloop
  endfacet
  facet normal  0.000000e+000  -0.000000e+000 -1.000000e+000
    outer loop
      vertex -4.480804e+000  4.152076e-001  0.000000e+000
      vertex -8.268728e-001  4.423379e+000  0.000000e+000
      vertex  0.000000e+000  4.500000e+000  0.000000e+000
    endloop
  endfacet
  facet normal  0.000000e+000  -0.000000e+000 -1.000000e+000
    outer loop
      vertex -4.480804e+000  4.152076e-001  0.000000e+000
      vertex  0.000000e+000  4.500000e+000  0.000000e+000
      vertex  2.000000e+000  4.500000e+000  0.000000e+000
    endloop
  endfacet
  facet normal  0.000000e+000  -0.000000e+000 -9.999999e-001
    outer loop
      vertex -4.480804e+000  4.152076e-001  0.000000e+000
      vertex  2.000000e+000  4.500000e+000  0.000000e+000
      vertex  2.000000e+000 -4.500000e+000  0.000000e+000
    endloop
  endfacet
  facet normal  0.000000e+000  0.000000e+000 -1.000000e+000
    outer loop
      vertex -4.480804e+000  4.152076e-001  0.000000e+000
      vertex  2.000000e+000 -4.500000e+000  0.000000e+000
      vertex -4.480804e+000 -4.152076e-001  0.000000e+000
    endloop
  endfacet
  facet normal  0.000000e+000  0.000000e+000 -1.000000e+000
    outer loop
      vertex  2.000000e+000 -4.500000e+000  0.000000e+000
      vertex  0.000000e+000 -4.500000e+000  0.000000e+000
      vertex -8.268728e-001 -4.423379e+000  0.000000e+000
    endloop
  endfacet
  facet normal  0.000000e+000  0.000000e+000 -1.000000e+000
    outer loop
      vertex  2.000000e+000 -4.500000e+000  0.000000e+000
      vertex -8.268728e-001 -4.423379e+000  0.000000e+000
      vertex -1.625587e+000 -4.196125e+000  0.000000e+000
    endloop
  endfacet
  facet normal  0.000000e+000  0.000000e+000 -1.000000e+000
    outer loop
      vertex  2.000000e+000 -4.500000e+000  0.000000e+000
      vertex -1.625587e+000 -4.196125e+000  0.000000e+000
      vertex -2.368945e+000 -3.825977e+000  0.000000e+000
    endloop
  endfacet
  facet normal  0.000000e+000  0.000000e+000 -1.000000e+000
    outer loop
      vertex  2.000000e+000 -4.500000e+000  0.000000e+000
      vertex -2.368945e+000 -3.825977e+000  0.000000e+000
      vertex -3.031630e+000 -3.325540e+000  0.000000e+000
    endloop
  endfacet
  facet normal  0.000000e+000  0.000000e+000 -1.000000e+000
    outer loop
      vertex  2.000000e+000 -4.500000e+000  0.000000e+000
      vertex -3.031630e+000 -3.325540e+000  0.000000e+000
      vertex -3.591078e+000 -2.711856e+000  0.000000e+000
    endloop
  endfacet
  facet normal  0.000000e+000  0.000000e+000 -1.000000e+000
    outer loop
      vertex  2.000000e+000 -4.500000e+000  0.000000e+000
      vertex -3.591078e+000 -2.711856e+000  0.000000e+000
      vertex -4.028235e+000 -2.005823e+000  0.000000e+000
    endloop
  endfacet
  facet normal  0.000000e+000  0.000000e+000 -1.000000e+000
    outer loop
      vertex  2.000000e+000 -4.500000e+000  0.000000e+000
      vertex -4.028235e+000 -2.005823e+000  0.000000e+000
      vertex -4.328216e+000 -1.231483e+000  0.000000e+000
    endloop
  endfacet
  facet normal  0.000000e+000  0.000000e+000 -9.999999e-001
    outer loop
      vertex  2.000000e+000 -4.500000e+000  0.000000e+000
      vertex -4.328216e+000 -1.231483e+000  0.000000e+000
      vertex -4.480804e+000 -4.152076e-001  0.000000e+000
    endloop
  endfacet
  facet normal -9.226836e-002 -9.957342e-001  -0.000000e+000
    outer loop
      vertex  0.000000e+000 -4.500000e+000  0.000000e+000
      vertex  0.000000e+000 -4.500000e+000  6.500000e+000
      vertex -8.268728e-001 -4.423379e+000  0.000000e+000
    endloop
  endfacet
  facet normal -9.226836e-002 -9.957342e-001  0.000000e+000
    outer loop
      vertex -8.268728e-001 -4.423379e+000  0.000000e+000
      vertex  0.000000e+000 -4.500000e+000  6.500000e+000
      vertex -8.268728e-001 -4.423379e+000  6.500000e+000
    endloop
  endfacet
  facet normal -2.736630e-001 -9.618256e-001  -0.000000e+000
    outer loop
      vertex -8.268728e-001 -4.423379e+000  0.000000e+000
      vertex -8.268728e-001 -4.423379e+000  6.500000e+000
      vertex -1.625587e+000 -4.196125e+000  0.000000e+000
    endloop
  endfacet
  facet normal -2.736630e-001 -9.618256e-001  0.000000e+000
    outer loop
      vertex -1.625587e+000 -4.196125e+000  0.000000e+000
      vertex -8.268728e-001 -4.423379e+000  6.500000e+000
      vertex -1.625587e+000 -4.196125e+000  6.500000e+000
    endloop
  endfacet
  facet normal -4.457384e-001 -8.951633e-001  -0.000000e+000
    outer loop
      vertex -1.625587e+000 -4.196125e+000  0.000000e+000
      vertex -1.625587e+000 -4.196125e+000  6.500000e+000
      vertex -2.368945e+000 -3.825977e+000  0.000000e+000
    endloop
  endfacet
  facet normal -4.457384e-001 -8.951633e-001  0.000000e+000
    outer loop
      vertex -2.368945e+000 -3.825977e+000  0.000000e+000
      vertex -1.625587e+000 -4.196125e+000  6.500000e+000
      vertex -2.368945e+000 -3.825977e+000  6.500000e+000
    endloop
  endfacet
  facet normal -6.026347e-001 -7.980171e-001  -0.000000e+000
    outer loop
      vertex -2.368945e+000 -3.825977e+000  0.000000e+000
      vertex -2.368945e+000 -3.825977e+000  6.500000e+000
      vertex -3.031630e+000 -3.325540e+000  0.000000e+000
    endloop
  endfacet
  facet normal -6.026347e-001 -7.980171e-001  0.000000e+000
    outer loop
      vertex -3.031630e+000 -3.325540e+000  0.000000e+000
      vertex -2.368945e+000 -3.825977e+000  6.500000e+000
      vertex -3.031630e+000 -3.325540e+000  6.500000e+000
    endloop
  endfacet
  facet normal -7.390087e-001 -6.736958e-001  -0.000000e+000
    outer loop
      vertex -3.031630e+000 -3.325540e+000  0.000000e+000
      vertex -3.031630e+000 -3.325540e+000  6.500000e+000
      vertex -3.591078e+000 -2.711856e+000  0.000000e+000
    endloop
  endfacet
  facet normal -7.390087e-001 -6.736958e-001  0.000000e+000
    outer loop
      vertex -3.591078e+000 -2.711856e+000  0.000000e+000
      vertex -3.031630e+000 -3.325540e+000  6.500000e+000
      vertex -3.591078e+000 -2.711856e+000  6.500000e+000
    endloop
  endfacet
  facet normal -8.502170e-001 -5.264323e-001  -0.000000e+000
    outer loop
      vertex -3.591078e+000 -2.711856e+000  0.000000e+000
      vertex -3.591078e+000 -2.711856e+000  6.500000e+000
      vertex -4.028235e+000 -2.005823e+000  0.000000e+000
    endloop
  endfacet
  facet normal -8.502170e-001 -5.264323e-001  0.000000e+000
    outer loop
      vertex -4.028235e+000 -2.005823e+000  0.000000e+000
      vertex -3.591078e+000 -2.711856e+000  6.500000e+000
      vertex -4.028235e+000 -2.005823e+000  6.500000e+000
    endloop
  endfacet
  facet normal -9.324722e-001 -3.612417e-001  -0.000000e+000
    outer loop
      vertex -4.028235e+000 -2.005823e+000  0.000000e+000
      vertex -4.028235e+000 -2.005823e+000  6.500000e+000
      vertex -4.328216e+000 -1.231483e+000  0.000000e+000
    endloop
  endfacet
  facet normal -9.324722e-001 -3.612417e-001  0.000000e+000
    outer loop
      vertex -4.328216e+000 -1.231483e+000  0.000000e+000
      vertex -4.028235e+000 -2.005823e+000  6.500000e+000
      vertex -4.328216e+000 -1.231483e+000  6.500000e+000
    endloop
  endfacet
  facet normal -9.829730e-001 -1.837495e-001  -0.000000e+000
    outer loop
      vertex -4.328216e+000 -1.231483e+000  0.000000e+000
      vertex -4.328216e+000 -1.231483e+000  6.500000e+000
      vertex -4.480804e+000 -4.152076e-001  0.000000e+000
    endloop
  endfacet
  facet normal -9.829730e-001 -1.837495e-001  0.000000e+000
    outer loop
      vertex -4.480804e+000 -4.152076e-001  0.000000e+000
      vertex -4.328216e+000 -1.231483e+000  6.500000e+000
      vertex -4.480804e+000 -4.152076e-001  6.500000e+000
    endloop
  endfacet
  facet normal -1.000000e+000  0.000000e+000  0.000000e+000
    outer loop
      vertex -4.480804e+000 -4.152076e-001  0.000000e+000
      vertex -4.480804e+000 -4.152076e-001  6.500000e+000
      vertex -4.480804e+000  4.152076e-001  0.000000e+000
    endloop
  endfacet
  facet normal -1.000000e+000  0.000000e+000  0.000000e+000
    outer loop
      vertex -4.480804e+000  4.152076e-001  0.000000e+000
      vertex -4.480804e+000 -4.152076e-001  6.500000e+000
      vertex -4.480804e+000  4.152076e-001  6.500000e+000
    endloop
  endfacet
  facet normal -9.829730e-001  1.837495e-001  0.000000e+000
    outer loop
      vertex -4.480804e+000  4.152076e-001  0.000000e+000
      vertex -4.480804e+000  4.152076e-001  6.500000e+000
      vertex -4.328216e+000  1.231483e+000  0.000000e+000
    endloop
  endfacet
  facet normal -9.829730e-001  1.837495e-001  0.000000e+000
    outer loop
      vertex -4.328216e+000  1.231483e+000  0.000000e+000
      vertex -4.480804e+000  4.152076e-001  6.500000e+000
      vertex -4.328216e+000  1.231483e+000  6.500000e+000
    endloop
  endfacet
  facet normal -9.324722e-001  3.612417e-001  0.000000e+000
    outer loop
      vertex -4.328216e+000  1.231483e+000  0.000000e+000
      vertex -4.328216e+000  1.231483e+000  6.500000e+000
      vertex -4.028235e+000  2.005823e+000  0.000000e+000
    endloop
  endfacet
  facet normal -9.324722e-001  3.612417e-001  0.000000e+000
    outer loop
      vertex -4.028235e+000  2.005823e+000  0.000000e+000
      vertex -4.328216e+000  1.231483e+000  6.500000e+000
      vertex -4.028235e+000  2.005823e+000  6.500000e+000
    endloop
  endfacet
  facet normal -8.502170e-001  5.264323e-001  0.000000e+000
    outer loop
      vertex -4.028235e+000  2.005823e+000  0.000000e+000
      vertex -4.028235e+000  2.005823e+000  6.500000e+000
      vertex -3.591078e+000  2.711856e+000  0.000000e+000
    endloop
  endfacet
  facet normal -8.502170e-001  5.264323e-001  0.000000e+000
    outer loop
      vertex -3.591078e+000  2.711856e+000  0.000000e+000
      vertex -4.028235e+000  2.005823e+000  6.500000e+000
      vertex -3.591078e+000  2.711856e+000  6.500000e+000
    endloop
  endfacet
  facet normal -7.390087e-001  6.736958e-001  0.000000e+000
    outer loop
      vertex -3.591078e+000  2.711856e+000  0.000000e+000
      vertex -3.591078e+000  2.711856e+000  6.500000e+000
      vertex -3.031630e+000  3.325540e+000  0.000000e+000
    endloop
  endfacet
  facet normal -7.390087e-001  6.736958e-001  0.000000e+000
    outer loop
      vertex -3.031630e+000  3.325540e+000  0.000000e+000
      vertex -3.591078e+000  2.711856e+000  6.500000e+000
      vertex -3.031630e+000  3.325540e+000  6.500000e+000
    endloop
  endfacet
  facet normal -6.026347e-001  7.980171e-001  0.000000e+000
    outer loop
      vertex -3.031630e+000  3.325540e+000  0.000000e+000
      vertex -3.031630e+000  3.325540e+000  6.500000e+000
      vertex -2.368945e+000  3.825977e+000  0.000000e+000
    endloop
  endfacet
  facet normal -6.026347e-001  7.980171e-001  0.000000e+000
    outer loop
      vertex -2.368945e+000  3.825977e+000  0.000000e+000
      vertex -3.031630e+000  3.325540e+000  6.500000e+000
      vertex -2.368945e+000  3.825977e+000  6.500000e+000
    endloop
  endfacet
  facet normal -4.457384e-001  8.951633e-001  0.000000e+000
    outer loop
      vertex -2.368945e+000  3.825977e+000  0.000000e+000
      vertex -2.368945e+000  3.825977e+000  6.500000e+000
      vertex -1.625587e+000  4.196125e+000  0.000000e+000
    endloop
  endfacet
  facet normal -4.457384e-001  8.951633e-001  0.000000e+000
    outer loop
      vertex -1.625587e+000  4.196125e+000  0.000000e+000
      vertex -2.368945e+000  3.825977e+000  6.500000e+000
      vertex -1.625587e+000  4.196125e+000  6.500000e+000
    endloop
  endfacet
  facet normal -2.736630e-001  9.618256e-001  0.000000e+000
    outer loop
      vertex -1.625587e+000  4.196125e+000  0.000000e+000
      vertex -1.625587e+000  4.196125e+000  6.500000e+000
      vertex -8.268728e-001  4.423379e+000  0.000000e+000
    endloop
  endfacet
  facet normal -2.736630e-001  9.618256e-001  0.000000e+000
    outer loop
      vertex -8.268728e-001  4.423379e+000  0.000000e+000
      vertex -1.625587e+000  4.196125e+000  6.500000e+000
      vertex -8.268728e-001  4.423379e+000  6.500000e+000
    endloop
  endfacet
  facet normal -9.226836e-002  9.957342e-001  0.000000e+000
    outer loop
      vertex -8.268728e-001  4.423379e+000  0.000000e+000
      vertex -8.268728e-001  4.423379e+000  6.500000e+000
      vertex  0.000000e+000  4.500000e+000  0.000000e+000
    endloop
  endfacet
  facet normal -9.226836e-002  9.957342e-001  0.000000e+000
    outer loop
      vertex  0.000000e+000  4.500000e+000  0.000000e+000
      vertex -8.268728e-001  4.423379e+000  6.500000e+000
      vertex  0.000000e+000  4.500000e+000  6.500000e+000
    endloop
  endfacet
  facet normal  0.000000e+000  1.000000e+000  0.000000e+000
    outer loop
      vertex  2.000000e+000  4.500000e+000  0.000000e+000
      vertex  0.000000e+000  4.500000e+000  0.000000e+000
      vertex  2.000000e+000  4.500000e+000  6.500000e+000
    endloop
  endfacet
  facet normal  0.000000e+000  1.000000e+000  0.000000e+000
    outer loop
      vertex  2.000000e+000  4.500000e+000  6.500000e+000
      vertex  0.000000e+000  4.500000e+000  0.000000e+000
      vertex  0.000000e+000  4.500000e+000  6.500000e+000
    endloop
  endfacet
  facet normal  0.000000e+000 -1.000000e+000  0.000000e+000
    outer loop
      vertex  0.000000e+000 -4.500000e+000  0.000000e+000
      vertex  2.000000e+000 -4.500000e+000  0.000000e+000
      vertex  0.000000e+000 -4.500000e+000  6.500000e+000
    endloop
  endfacet
  facet normal  0.000000e+000 -1.000000e+000  0.000000e+000
    outer loop
      vertex  0.000000e+000 -4.500000e+000  6.500000e+000
      vertex  2.000000e+000 -4.500000e+000  0.000000e+000
      vertex  2.000000e+000 -4.500000e+000  6.500000e+000
    endloop
  endfacet
endsolid CATIA STL
